<svg width="197" height="197" viewBox="0 0 197 197" fill="none" xmlns="http://www.w3.org/2000/svg">
<path d="M92.5708 87.9551C95.3144 87.9388 97.4798 90.0599 97.5086 92.7915C97.538 95.5827 95.3721 97.7678 92.5862 97.7582C89.8498 97.7486 87.7094 95.6024 87.7061 92.8646C87.7022 90.1239 89.8354 87.9715 92.5708 87.9551Z" fill="#00330B" fill-opacity="0.5"/>
<path d="M104.144 87.9551C106.883 87.9556 109.032 90.0931 109.045 92.8285C109.058 95.6159 106.876 97.7841 104.085 97.7577C101.352 97.7317 99.2284 95.5697 99.2419 92.8266C99.2553 90.0912 101.405 87.9546 104.144 87.9551Z" fill="#00330B" fill-opacity="0.5"/>
<path d="M104.199 99.2603C106.932 99.2853 109.057 101.447 109.044 104.189C109.032 106.971 106.825 109.114 104.029 109.063C101.305 109.013 99.2039 106.824 99.2418 104.077C99.2793 101.348 101.454 99.2353 104.199 99.2603Z" fill="#00330B" fill-opacity="0.5"/>
<path d="M97.5086 104.145C97.5163 106.886 95.3865 109.043 92.652 109.063C89.8628 109.083 87.6868 106.909 87.7056 104.12C87.7238 101.385 89.8786 99.2545 92.6194 99.2598C95.3572 99.266 97.5014 101.408 97.5086 104.145Z" fill="#00330B" fill-opacity="0.5"/>
<path d="M109.003 81.3287C109 84.056 106.818 86.206 104.077 86.1805C101.407 86.1555 99.2799 83.9959 99.2833 81.3119C99.2866 78.5847 101.469 76.4346 104.209 76.4601C106.88 76.4851 109.007 78.6447 109.003 81.3287Z" fill="#00330B" fill-opacity="0.5"/>
<path d="M86.1444 92.8579C86.1435 95.5222 83.9651 97.6991 81.3008 97.6986C78.6365 97.6976 76.4596 95.5193 76.4601 92.855C76.461 90.1907 78.6394 88.0138 81.3037 88.0142C83.968 88.0147 86.1454 90.1936 86.1444 92.8579Z" fill="#00330B" fill-opacity="0.5"/>
<path d="M120.32 92.8521C120.321 95.5899 118.165 97.737 115.424 97.7274C112.692 97.7178 110.557 95.5486 110.577 92.8025C110.597 90.1224 112.732 87.9969 115.416 87.9849C118.159 87.9724 120.318 90.1157 120.32 92.8521Z" fill="#00330B" fill-opacity="0.5"/>
<path d="M115.409 109.021C112.688 109.007 110.551 106.809 110.588 104.065C110.625 101.4 112.798 99.2867 115.487 99.3016C118.209 99.3165 120.346 101.514 120.308 104.258C120.272 106.923 118.099 109.036 115.409 109.021Z" fill="#00330B" fill-opacity="0.5"/>
<path d="M92.6146 86.1805C89.8845 86.1834 87.7282 84.0075 87.7474 81.2701C87.7667 78.5967 89.9191 76.463 92.6007 76.4606C95.3308 76.4577 97.4871 78.6337 97.4678 81.371C97.4486 84.0445 95.2957 86.1781 92.6146 86.1805Z" fill="#00330B" fill-opacity="0.5"/>
<path d="M108.985 115.661C109.003 118.327 106.841 120.522 104.18 120.54C101.514 120.557 99.3188 118.395 99.301 115.734C99.2832 113.068 101.445 110.873 104.107 110.855C106.773 110.837 108.968 112.999 108.985 115.661Z" fill="#00330B" fill-opacity="0.5"/>
<path d="M86.1338 104.159C86.1352 106.816 83.9319 109.008 81.2758 108.993C78.6201 108.978 76.4399 106.76 76.4711 104.106C76.5014 101.497 78.6624 99.3468 81.2714 99.3299C83.9271 99.3131 86.1324 101.503 86.1338 104.159Z" fill="#00330B" fill-opacity="0.5"/>
<path d="M92.5549 110.866C95.2096 110.836 97.4259 113.018 97.4389 115.673C97.4519 118.33 95.2591 120.531 92.6025 120.528C89.9921 120.526 87.8209 118.389 87.7762 115.779C87.7306 113.127 89.9017 110.895 92.5549 110.866Z" fill="#00330B" fill-opacity="0.5"/>
<path d="M120.215 81.3105C120.223 83.906 118.059 86.0801 115.458 86.0877C112.863 86.0954 110.689 83.931 110.681 81.3307C110.673 78.7351 112.838 76.5611 115.438 76.5534C118.034 76.5457 120.208 78.7106 120.215 81.3105Z" fill="#00330B" fill-opacity="0.5"/>
<path d="M120.155 115.753C120.123 118.395 117.974 120.469 115.335 120.404C112.736 120.34 110.709 118.239 110.741 115.642C110.773 112.999 112.923 110.925 115.561 110.991C118.161 111.055 120.188 113.156 120.155 115.753Z" fill="#00330B" fill-opacity="0.5"/>
<path d="M85.9853 81.3585C85.9666 83.9704 83.9079 86.0084 81.2926 86.0036C78.6355 85.9988 76.5721 83.8887 76.6187 81.2249C76.6644 78.6212 78.7519 76.6053 81.3686 76.6375C83.9771 76.6697 86.0041 78.7428 85.9853 81.3585Z" fill="#00330B" fill-opacity="0.5"/>
<path d="M81.3133 111.063C83.9276 111.067 85.9632 113.138 85.9367 115.766C85.9108 118.323 83.8632 120.336 81.2911 120.332C78.6773 120.328 76.6412 118.257 76.6677 115.629C76.6931 113.072 78.7412 111.059 81.3133 111.063Z" fill="#00330B" fill-opacity="0.5"/>
<path d="M104.197 65.4107C106.731 65.44 108.793 67.5636 108.747 70.0986C108.703 72.6297 106.564 74.6798 104.031 74.6197C101.545 74.5606 99.5245 72.4788 99.538 69.99C99.5524 67.4554 101.662 65.3819 104.197 65.4107Z" fill="#00330B" fill-opacity="0.5"/>
<path d="M127.006 97.4611C124.471 97.4726 122.376 95.3837 122.38 92.8492C122.384 90.3152 124.487 88.2325 127.021 88.2517C129.51 88.2709 131.562 90.3171 131.589 92.8059C131.616 95.3414 129.54 97.4496 127.006 97.4611Z" fill="#00330B" fill-opacity="0.5"/>
<path d="M92.6237 65.4223C95.1486 65.4328 97.2467 67.5723 97.2006 70.0895C97.1554 72.574 95.0693 74.6187 92.591 74.6086C90.0661 74.5985 87.968 72.4587 88.0142 69.9414C88.0594 67.4569 90.1454 65.4122 92.6237 65.4223Z" fill="#00330B" fill-opacity="0.5"/>
<path d="M122.391 104.144C122.402 101.619 124.542 99.5212 127.06 99.5683C129.544 99.6145 131.588 101.701 131.578 104.179C131.567 106.704 129.426 108.802 126.909 108.755C124.424 108.709 122.38 106.623 122.391 104.144Z" fill="#00330B" fill-opacity="0.5"/>
<path d="M108.683 126.953C108.721 129.423 106.651 131.526 104.164 131.542C101.687 131.559 99.5976 129.476 99.6033 126.995C99.6091 124.555 101.611 122.522 104.064 122.463C106.528 122.403 108.645 124.461 108.683 126.953Z" fill="#00330B" fill-opacity="0.5"/>
<path d="M74.2725 93.0275C74.1524 95.5548 72.0125 97.5125 69.538 97.3583C67.0511 97.203 65.1448 95.1208 65.2606 92.6858C65.3808 90.1584 67.5207 88.2007 69.9951 88.355C72.4821 88.5098 74.3879 90.592 74.2725 93.0275Z" fill="#00330B" fill-opacity="0.5"/>
<path d="M92.4454 131.509C89.919 131.395 87.956 129.258 88.105 126.783C88.2545 124.297 90.3333 122.386 92.7693 122.496C95.2957 122.61 97.2587 124.747 97.1097 127.222C96.9602 129.708 94.8814 131.619 92.4454 131.509Z" fill="#00330B" fill-opacity="0.5"/>
<path d="M69.7966 108.639C67.3116 108.657 65.3222 106.707 65.2885 104.22C65.2544 101.691 67.264 99.6669 69.7937 99.6832C72.2812 99.6996 74.2432 101.673 74.2442 104.16C74.2451 106.647 72.284 108.622 69.7966 108.639Z" fill="#00330B" fill-opacity="0.5"/>
<path d="M119.88 70.0145C119.881 72.5202 117.929 74.4596 115.42 74.4476C112.92 74.4356 110.992 72.4711 111.016 69.9587C111.04 67.5069 112.962 65.5958 115.419 65.5833C117.928 65.5703 119.88 67.5093 119.88 70.0145Z" fill="#00330B" fill-opacity="0.5"/>
<path d="M131.416 81.3215C131.416 83.8267 129.463 85.7657 126.954 85.7532C124.454 85.7407 122.527 83.7753 122.552 81.2624C122.576 78.811 124.499 76.9004 126.956 76.8884C129.465 76.8764 131.417 78.8158 131.416 81.3215Z" fill="#00330B" fill-opacity="0.5"/>
<path d="M85.7041 70.0342C85.6969 72.4779 83.7574 74.4135 81.3123 74.4178C78.8176 74.4217 76.87 72.4452 76.8998 69.9395C76.9291 67.5045 78.8926 65.5953 81.3493 65.6136C83.7896 65.6313 85.7113 67.5828 85.7041 70.0342Z" fill="#00330B" fill-opacity="0.5"/>
<path d="M127.012 120.099C124.559 120.11 122.604 118.192 122.582 115.754C122.559 113.25 124.515 111.283 127.013 111.295C129.456 111.307 131.386 113.25 131.386 115.698C131.386 118.145 129.455 120.089 127.012 120.099Z" fill="#00330B" fill-opacity="0.5"/>
<path d="M119.839 127.015C119.834 129.449 117.873 131.399 115.436 131.393C113.002 131.388 111.052 129.426 111.058 126.99C111.063 124.556 113.024 122.606 115.461 122.612C117.894 122.617 119.844 124.579 119.839 127.015Z" fill="#00330B" fill-opacity="0.5"/>
<path d="M65.4092 115.601C65.4707 113.232 67.4799 111.297 69.8337 111.34C72.2442 111.384 74.2211 113.464 74.1212 115.851C74.0221 118.224 71.9875 120.132 69.6419 120.053C67.2722 119.973 65.3481 117.949 65.4092 115.601Z" fill="#00330B" fill-opacity="0.5"/>
<path d="M69.7356 85.7022C67.3183 85.6873 65.3549 83.683 65.3842 81.261C65.4135 78.8466 67.4323 76.8946 69.8543 76.9384C72.2225 76.9812 74.149 78.948 74.148 81.322C74.1476 83.7416 72.1567 85.7176 69.7356 85.7022Z" fill="#00330B" fill-opacity="0.5"/>
<path d="M85.6594 127.059C85.6228 129.425 83.6315 131.377 81.2743 131.36C78.8705 131.341 76.8719 129.277 76.946 126.888C77.0195 124.52 79.0397 122.591 81.3877 122.645C83.7555 122.7 85.6954 124.705 85.6594 127.059Z" fill="#00330B" fill-opacity="0.5"/>
<path d="M126.992 65.8265C129.369 65.8299 131.2 67.6924 131.173 70.0808C131.147 72.4029 129.311 74.2078 126.976 74.2044C124.6 74.201 122.769 72.3385 122.795 69.9501C122.821 67.628 124.657 65.8236 126.992 65.8265Z" fill="#00330B" fill-opacity="0.5"/>
<path d="M138.222 108.335C135.909 108.309 134.101 106.455 134.116 104.124C134.131 101.758 136.022 99.9385 138.414 99.9889C140.718 100.037 142.501 101.917 142.463 104.257C142.426 106.564 140.557 108.362 138.222 108.335Z" fill="#00330B" fill-opacity="0.5"/>
<path d="M108.317 58.5209C108.3 60.8396 106.459 62.658 104.13 62.6532C101.762 62.6479 99.9292 60.7656 99.9691 58.3806C100.008 56.0739 101.878 54.2786 104.213 54.306C106.526 54.3334 108.333 56.1892 108.317 58.5209Z" fill="#00330B" fill-opacity="0.5"/>
<path d="M142.463 92.9299C142.434 95.2419 140.577 97.0478 138.245 97.03C135.881 97.0122 134.063 95.117 134.117 92.7252C134.168 90.4219 136.05 88.642 138.392 88.6824C140.698 88.7227 142.492 90.5939 142.463 92.9299Z" fill="#00330B" fill-opacity="0.5"/>
<path d="M96.7689 58.4349C96.7881 60.756 94.9621 62.6224 92.652 62.6416C90.3309 62.6609 88.4645 60.8348 88.4453 58.5248C88.4261 56.2037 90.2526 54.3373 92.5621 54.318C94.8837 54.2988 96.7496 56.1249 96.7689 58.4349Z" fill="#00330B" fill-opacity="0.5"/>
<path d="M73.9063 69.9582C73.939 72.2433 72.0529 74.1559 69.7659 74.1559C67.5241 74.1559 65.6582 72.3154 65.626 70.0731C65.5933 67.7881 67.4794 65.8755 69.7664 65.8755C72.0082 65.8755 73.8741 67.716 73.9063 69.9582Z" fill="#00330B" fill-opacity="0.5"/>
<path d="M131.136 127.052C131.111 129.352 129.212 131.193 126.905 131.153C124.608 131.115 122.78 129.203 122.833 126.894C122.885 124.645 124.747 122.84 127.006 122.851C129.308 122.862 131.16 124.746 131.136 127.052Z" fill="#00330B" fill-opacity="0.5"/>
<path d="M58.4161 108.271C56.1868 108.238 54.3204 106.33 54.3521 104.116C54.3843 101.887 56.2925 100.021 58.5064 100.052C60.7357 100.085 62.6021 101.993 62.5699 104.207C62.5382 106.436 60.63 108.302 58.4161 108.271Z" fill="#00330B" fill-opacity="0.5"/>
<path d="M138.254 77.2114C140.469 77.1869 142.373 79.0586 142.398 81.2855C142.422 83.5004 140.551 85.4047 138.324 85.4293C136.109 85.4538 134.205 83.5821 134.18 81.3552C134.156 79.1403 136.028 77.2364 138.254 77.2114Z" fill="#00330B" fill-opacity="0.5"/>
<path d="M104.185 134.412C106.418 134.439 108.277 136.323 108.269 138.551C108.261 140.824 106.304 142.729 104.044 142.664C101.807 142.6 99.9715 140.688 100.016 138.468C100.062 136.234 101.961 134.385 104.185 134.412Z" fill="#00330B" fill-opacity="0.5"/>
<path d="M92.5766 142.648C90.3506 142.625 88.4765 140.723 88.4982 138.508C88.5203 136.282 90.4227 134.408 92.6381 134.429C94.864 134.451 96.7381 136.354 96.7165 138.569C96.6944 140.795 94.7919 142.669 92.5766 142.648Z" fill="#00330B" fill-opacity="0.5"/>
<path d="M58.4963 88.7473C60.7232 88.7723 62.5949 90.6766 62.5704 92.8915C62.5454 95.1184 60.641 96.9901 58.4261 96.9656C56.1992 96.9406 54.3275 95.0367 54.352 92.8213C54.377 90.5944 56.2814 88.7223 58.4963 88.7473Z" fill="#00330B" fill-opacity="0.5"/>
<path d="M115.448 54.3916C117.683 54.3916 119.58 56.3147 119.537 58.5373C119.494 60.7397 117.64 62.5676 115.449 62.5681C113.214 62.5681 111.317 60.645 111.36 58.4224C111.403 56.2195 113.257 54.3916 115.448 54.3916Z" fill="#00330B" fill-opacity="0.5"/>
<path d="M142.347 115.707C142.34 117.918 140.52 119.742 138.308 119.755C136.058 119.769 134.183 117.872 134.232 115.63C134.279 113.412 136.125 111.613 138.328 111.64C140.541 111.667 142.354 113.501 142.347 115.707Z" fill="#00330B" fill-opacity="0.5"/>
<path d="M69.7592 131.091C67.5222 131.085 65.6293 129.159 65.6784 126.937C65.7269 124.733 67.5842 122.908 69.7741 122.914C72.0111 122.92 73.9039 124.846 73.8549 127.067C73.8058 129.271 71.9486 131.096 69.7592 131.091Z" fill="#00330B" fill-opacity="0.5"/>
<path d="M85.3239 58.4517C85.3407 60.6873 83.568 62.4845 81.3301 62.5013C79.0945 62.5181 77.2973 60.7454 77.2805 58.5075C77.2637 56.2719 79.0364 54.4748 81.2743 54.4579C83.5099 54.4411 85.3075 56.2138 85.3239 58.4517Z" fill="#00330B" fill-opacity="0.5"/>
<path d="M115.445 134.569C117.707 134.567 119.441 136.324 119.418 138.593C119.394 140.8 117.666 142.507 115.451 142.508C113.189 142.509 111.455 140.752 111.479 138.484C111.502 136.277 113.231 134.57 115.445 134.569Z" fill="#00330B" fill-opacity="0.5"/>
<path d="M58.5185 77.3508C60.7699 77.3753 62.4801 79.161 62.4306 81.435C62.3825 83.6321 60.6257 85.3144 58.4046 85.2899C56.1531 85.2653 54.4425 83.4797 54.4925 81.2057C54.5405 79.0091 56.2973 77.3268 58.5185 77.3508Z" fill="#00330B" fill-opacity="0.5"/>
<path d="M81.3349 142.475C79.1301 142.489 77.3786 140.767 77.3651 138.571C77.3517 136.366 79.0739 134.615 81.2695 134.601C83.4743 134.588 85.2258 136.31 85.2393 138.506C85.2528 140.71 83.5306 142.462 81.3349 142.475Z" fill="#00330B" fill-opacity="0.5"/>
<path d="M58.4272 119.634C56.232 119.621 54.5103 117.868 54.5242 115.664C54.5381 113.469 56.2901 111.747 58.4949 111.761C60.6901 111.775 62.4118 113.527 62.3979 115.731C62.3844 117.926 60.6324 119.648 58.4272 119.634Z" fill="#00330B" fill-opacity="0.5"/>
<path d="M130.867 58.458C130.882 60.5642 129.086 62.3677 126.977 62.3634C124.865 62.3586 123.076 60.5488 123.1 58.444C123.125 56.3719 124.859 54.6305 126.933 54.5963C129.039 54.5613 130.853 56.3417 130.867 58.458Z" fill="#00330B" fill-opacity="0.5"/>
<path d="M142.173 69.9626C142.209 72.0674 140.43 73.8819 138.313 73.8987C136.207 73.915 134.402 72.1193 134.406 70.0106C134.409 67.9438 136.13 66.1875 138.208 66.1322C140.304 66.0759 142.136 67.8467 142.173 69.9626Z" fill="#00330B" fill-opacity="0.5"/>
<path d="M138.329 130.836C136.253 130.864 134.505 129.164 134.456 127.071C134.407 124.956 136.184 123.156 138.308 123.169C140.393 123.182 142.116 124.908 142.123 126.992C142.13 129.073 140.418 130.808 138.329 130.836Z" fill="#00330B" fill-opacity="0.5"/>
<path d="M73.528 58.5368C73.5006 60.669 71.7976 62.296 69.6515 62.2408C67.5678 62.1869 65.9773 60.5219 66.0042 58.4229C66.0316 56.2907 67.7346 54.6636 69.8808 54.7189C71.9644 54.7722 73.5549 56.4373 73.528 58.5368Z" fill="#00330B" fill-opacity="0.5"/>
<path d="M126.928 134.777C129.072 134.75 130.747 136.4 130.746 138.54C130.745 140.634 129.13 142.274 127.04 142.3C124.896 142.327 123.222 140.676 123.223 138.537C123.223 136.442 124.838 134.803 126.928 134.777Z" fill="#00330B" fill-opacity="0.5"/>
<path d="M58.4386 66.2538C60.5785 66.2428 62.2402 67.9097 62.2229 70.051C62.2061 72.1433 60.5771 73.767 58.4833 73.7776C56.3434 73.7886 54.6818 72.1217 54.6991 69.9808C54.7164 67.888 56.3454 66.2644 58.4386 66.2538Z" fill="#00330B" fill-opacity="0.5"/>
<path d="M104.115 50.8938C102.028 50.8823 100.412 49.2413 100.424 47.1461C100.436 45.0596 102.077 43.4436 104.172 43.4556C106.259 43.4672 107.875 45.1081 107.863 47.2033C107.851 49.2894 106.21 50.9054 104.115 50.8938Z" fill="#00330B" fill-opacity="0.5"/>
<path d="M149.797 107.881C147.71 107.869 146.094 106.229 146.106 104.134C146.117 102.047 147.758 100.431 149.853 100.443C151.94 100.454 153.555 102.095 153.544 104.19C153.533 106.276 151.892 107.892 149.797 107.881Z" fill="#00330B" fill-opacity="0.5"/>
<path d="M149.778 96.5758C147.696 96.557 146.087 94.9059 146.106 92.8093C146.125 90.7271 147.776 89.1178 149.872 89.137C151.954 89.1563 153.564 90.8069 153.544 92.9035C153.525 94.9852 151.875 96.5945 149.778 96.5758Z" fill="#00330B" fill-opacity="0.5"/>
<path d="M58.4925 123.298C60.5665 123.311 62.1916 124.977 62.1657 127.062C62.1402 129.129 60.4588 130.745 58.3728 130.707C56.353 130.67 54.7558 129.032 54.7568 127C54.7577 124.922 56.4098 123.285 58.4925 123.298Z" fill="#00330B" fill-opacity="0.5"/>
<path d="M96.5425 47.1331C96.5603 49.2173 94.9285 50.8732 92.8506 50.8789C90.7717 50.8847 89.1264 49.2375 89.1336 47.1581C89.1408 45.1293 90.7472 43.4994 92.7679 43.47C94.8535 43.4398 96.5247 45.062 96.5425 47.1331Z" fill="#00330B" fill-opacity="0.5"/>
<path d="M69.776 142.243C67.6981 142.247 66.0537 140.598 66.0619 138.519C66.0701 136.443 67.7293 134.813 69.8144 134.834C71.8404 134.854 73.455 136.473 73.4708 138.5C73.4872 140.584 71.8539 142.238 69.776 142.243Z" fill="#00330B" fill-opacity="0.5"/>
<path d="M119.113 47.212C119.089 49.199 117.39 50.864 115.411 50.8395C113.423 50.815 111.759 49.1163 111.783 47.137C111.808 45.149 113.506 43.4849 115.486 43.5094C117.473 43.5335 119.138 45.2326 119.113 47.212Z" fill="#00330B" fill-opacity="0.5"/>
<path d="M50.5703 104.184C50.5539 106.176 48.8197 107.863 46.8452 107.806C44.8908 107.75 43.2652 106.077 43.2811 104.138C43.2974 102.146 45.0316 100.46 47.0062 100.517C48.9605 100.573 50.5861 102.245 50.5703 104.184Z" fill="#00330B" fill-opacity="0.5"/>
<path d="M96.2522 149.9C96.2123 151.896 94.4617 153.567 92.4934 153.487C90.5295 153.408 88.924 151.725 88.963 149.787C89.0029 147.791 90.7534 146.12 92.7217 146.2C94.6847 146.279 96.2911 147.963 96.2522 149.9Z" fill="#00330B" fill-opacity="0.5"/>
<path d="M104.151 153.509C102.168 153.514 100.483 151.836 100.478 149.852C100.472 147.868 102.15 146.183 104.135 146.178C106.118 146.173 107.803 147.85 107.808 149.835C107.814 151.819 106.136 153.503 104.151 153.509Z" fill="#00330B" fill-opacity="0.5"/>
<path d="M153.49 81.3504C153.471 83.3388 151.777 85.0053 149.795 84.9856C147.807 84.9664 146.14 83.2725 146.16 81.2908C146.179 79.3023 147.873 77.6358 149.854 77.6555C151.843 77.6747 153.51 79.3686 153.49 81.3504Z" fill="#00330B" fill-opacity="0.5"/>
<path d="M46.9326 89.2116C48.9197 89.2164 50.6159 90.9463 50.5703 92.9213C50.5251 94.8761 48.8625 96.5061 46.9182 96.5013C44.9312 96.4965 43.2349 94.7666 43.2806 92.7915C43.3257 90.8367 44.9884 89.2068 46.9326 89.2116Z" fill="#00330B" fill-opacity="0.5"/>
<path d="M153.444 115.754C153.404 117.712 151.74 119.337 149.797 119.317C147.798 119.296 146.125 117.555 146.207 115.583C146.289 113.616 147.978 112.017 149.911 112.078C151.872 112.14 153.485 113.817 153.444 115.754Z" fill="#00330B" fill-opacity="0.5"/>
<path d="M84.9216 47.1322C84.9514 49.0731 83.3335 50.7424 81.3729 50.7939C79.3954 50.8453 77.6713 49.1471 77.6824 47.1591C77.6934 45.2067 79.3368 43.5647 81.2883 43.5551C83.2359 43.5455 84.8918 45.1759 84.9216 47.1322Z" fill="#00330B" fill-opacity="0.5"/>
<path d="M141.832 58.4272C141.859 60.4378 140.293 62.0254 138.284 62.0225C136.319 62.0197 134.773 60.4941 134.746 58.532C134.719 56.5214 136.286 54.9338 138.295 54.9366C140.259 54.9395 141.806 56.4652 141.832 58.4272Z" fill="#00330B" fill-opacity="0.5"/>
<path d="M118.991 149.871C118.977 151.878 117.375 153.43 115.363 153.386C113.406 153.344 111.891 151.779 111.905 149.816C111.92 147.808 113.521 146.257 115.533 146.301C117.49 146.343 119.005 147.908 118.991 149.871Z" fill="#00330B" fill-opacity="0.5"/>
<path d="M84.7961 149.832C84.8009 151.804 83.282 153.333 81.3133 153.338C79.3416 153.343 77.8126 151.824 77.8078 149.855C77.803 147.883 79.3219 146.355 81.2907 146.35C83.2628 146.345 84.7913 147.863 84.7961 149.832Z" fill="#00330B" fill-opacity="0.5"/>
<path d="M50.4193 115.41C50.4434 117.387 48.9423 118.937 46.9821 118.961C45.0052 118.985 43.4551 117.483 43.4315 115.523C43.4075 113.546 44.9086 111.996 46.8687 111.973C48.8457 111.949 50.3958 113.449 50.4193 115.41Z" fill="#00330B" fill-opacity="0.5"/>
<path d="M50.4405 81.3638C50.4213 83.3326 48.8865 84.8424 46.911 84.8357C44.8932 84.8289 43.3647 83.2495 43.4104 81.2196C43.4546 79.26 45.0167 77.7733 46.9975 77.8055C48.961 77.8367 50.4602 79.3859 50.4405 81.3638Z" fill="#00330B" fill-opacity="0.5"/>
<path d="M141.766 138.542C141.764 140.502 140.221 142.03 138.257 142.015C136.301 142.001 134.785 140.445 134.812 138.477C134.838 136.571 136.352 135.072 138.264 135.062C140.227 135.051 141.768 136.582 141.766 138.542Z" fill="#00330B" fill-opacity="0.5"/>
<path d="M58.4276 55.0165C60.3733 55.0001 61.9359 56.5584 61.9244 58.5036C61.9129 60.4008 60.3911 61.9269 58.4944 61.9428C56.5482 61.9591 54.9861 60.4013 54.9976 58.4556C55.0096 56.5584 56.5314 55.0323 58.4276 55.0165Z" fill="#00330B" fill-opacity="0.5"/>
<path d="M130.434 47.2105C130.414 49.0966 128.832 50.6453 126.948 50.6251C125.062 50.6049 123.513 49.0231 123.533 47.1389C123.554 45.2528 125.136 43.7041 127.02 43.7243C128.906 43.7445 130.455 45.3259 130.434 47.2105Z" fill="#00330B" fill-opacity="0.5"/>
<path d="M153.275 69.9808C153.295 71.8655 151.746 73.4464 149.86 73.4661C147.975 73.4858 146.395 71.9366 146.374 70.0505C146.355 68.1663 147.904 66.5849 149.79 66.5652C151.675 66.545 153.256 68.0947 153.275 69.9808Z" fill="#00330B" fill-opacity="0.5"/>
<path d="M69.9413 43.7618C71.7952 43.7229 73.4112 45.3138 73.4098 47.1764C73.4088 48.9947 71.8784 50.5492 70.0529 50.5876C68.199 50.6266 66.583 49.0356 66.5844 47.173C66.5854 45.3547 68.1153 43.7998 69.9413 43.7618Z" fill="#00330B" fill-opacity="0.5"/>
<path d="M153.238 127.02C153.226 128.884 151.6 130.468 149.751 130.416C147.923 130.364 146.4 128.8 146.412 126.986C146.424 125.121 148.051 123.538 149.9 123.59C151.728 123.641 153.25 125.205 153.238 127.02Z" fill="#00330B" fill-opacity="0.5"/>
<path d="M61.874 138.362C61.8355 140.233 60.1931 141.797 58.3493 141.719C56.5165 141.642 55.0111 140.062 55.0486 138.253C55.0871 136.383 56.7295 134.819 58.5733 134.896C60.406 134.973 61.9115 136.554 61.874 138.362Z" fill="#00330B" fill-opacity="0.5"/>
<path d="M130.33 149.851C130.325 151.713 128.808 153.211 126.948 153.189C125.085 153.167 123.599 151.636 123.639 149.779C123.678 147.959 125.144 146.512 126.963 146.499C128.823 146.485 130.334 147.99 130.33 149.851Z" fill="#00330B" fill-opacity="0.5"/>
<path d="M50.2026 127.058C50.178 128.903 48.7293 130.304 46.8697 130.279C45.0244 130.255 43.6242 128.806 43.6488 126.946C43.6733 125.101 45.122 123.701 46.9816 123.725C48.8264 123.75 50.2266 125.199 50.2026 127.058Z" fill="#00330B" fill-opacity="0.5"/>
<path d="M50.2299 69.9813C50.2472 71.8357 48.836 73.2897 46.9884 73.32C45.0874 73.3517 43.6088 71.8905 43.6209 69.9919C43.6324 68.1404 45.0676 66.7133 46.9201 66.7109C48.7731 66.708 50.2131 68.1308 50.2299 69.9813Z" fill="#00330B" fill-opacity="0.5"/>
<path d="M69.8183 146.566C71.665 146.589 73.0661 148.035 73.0435 149.895C73.0209 151.742 71.5746 153.143 69.7144 153.121C67.8678 153.098 66.4666 151.652 66.4892 149.792C66.5118 147.945 67.9586 146.544 69.8183 146.566Z" fill="#00330B" fill-opacity="0.5"/>
<path d="M164.37 92.9073C164.346 94.7271 162.856 96.1465 161.022 96.0955C159.256 96.0465 157.868 94.5882 157.891 92.8059C157.915 90.9861 159.405 89.5672 161.239 89.6177C163.004 89.6662 164.393 91.125 164.37 92.9073Z" fill="#00330B" fill-opacity="0.5"/>
<path d="M104.114 32.412C105.882 32.3961 107.354 33.8419 107.37 35.6093C107.386 37.3772 105.94 38.8495 104.172 38.8653C102.405 38.8812 100.932 37.4354 100.917 35.668C100.901 33.8996 102.346 32.4278 104.114 32.412Z" fill="#00330B" fill-opacity="0.5"/>
<path d="M164.357 104.2C164.336 105.968 162.859 107.409 161.091 107.388C159.324 107.367 157.882 105.89 157.904 104.123C157.925 102.355 159.401 100.914 161.169 100.935C162.937 100.956 164.378 102.433 164.357 104.2Z" fill="#00330B" fill-opacity="0.5"/>
<path d="M92.8087 38.8653C91.0409 38.8495 89.5955 37.3777 89.6114 35.6093C89.6273 33.8415 91.099 32.3961 92.8674 32.4115C94.6353 32.4274 96.0806 33.8991 96.0647 35.6675C96.0489 37.4353 94.5771 38.8812 92.8087 38.8653Z" fill="#00330B" fill-opacity="0.5"/>
<path d="M141.479 47.174C141.479 48.9121 139.961 50.4031 138.233 50.3641C136.527 50.3257 135.1 48.8727 135.1 47.175C135.1 45.4369 136.617 43.9459 138.346 43.9848C140.051 44.0233 141.478 45.4763 141.479 47.174Z" fill="#00330B" fill-opacity="0.5"/>
<path d="M164.291 81.2802C164.318 82.9788 162.881 84.4535 161.17 84.4814C159.471 84.5088 157.997 83.0711 157.969 81.3604C157.942 79.6618 159.379 78.1871 161.09 78.1593C162.789 78.1323 164.264 79.57 164.291 81.2802Z" fill="#00330B" fill-opacity="0.5"/>
<path d="M149.85 55.3188C151.559 55.3361 153.003 56.804 152.986 58.5046C152.969 60.2134 151.501 61.6577 149.8 61.6404C148.091 61.6231 146.647 60.1552 146.664 58.4546C146.682 56.7459 148.149 55.3015 149.85 55.3188Z" fill="#00330B" fill-opacity="0.5"/>
<path d="M118.84 35.667C118.82 37.3762 117.351 38.8191 115.651 38.7994C113.941 38.7797 112.498 37.3108 112.518 35.6103C112.538 33.901 114.007 32.4581 115.707 32.4778C117.417 32.4975 118.859 33.9664 118.84 35.667Z" fill="#00330B" fill-opacity="0.5"/>
<path d="M38.7412 104.151C38.7479 105.892 37.3103 107.312 35.5727 107.282C33.8731 107.254 32.5056 105.869 32.4993 104.172C32.4931 102.431 33.9298 101.011 35.6679 101.041C37.3675 101.069 38.7349 102.454 38.7412 104.151Z" fill="#00330B" fill-opacity="0.5"/>
<path d="M164.251 115.685C164.259 117.425 162.822 118.847 161.085 118.818C159.385 118.79 158.017 117.407 158.009 115.709C158.002 113.969 159.438 112.548 161.176 112.576C162.876 112.604 164.244 113.987 164.251 115.685Z" fill="#00330B" fill-opacity="0.5"/>
<path d="M84.4231 35.5824C84.4582 37.319 83.0412 38.7605 81.3003 38.7596C79.6031 38.7586 78.2149 37.395 78.1808 35.6944C78.1457 33.9578 79.5627 32.5163 81.3037 32.5172C83.0014 32.5187 84.389 33.8823 84.4231 35.5824Z" fill="#00330B" fill-opacity="0.5"/>
<path d="M38.7412 92.6266C38.7407 94.3681 37.2982 95.7831 35.5616 95.7466C33.861 95.711 32.4988 94.3214 32.4993 92.6247C32.4998 90.8833 33.9423 89.4682 35.6789 89.5048C37.3795 89.5403 38.7417 90.9299 38.7412 92.6266Z" fill="#00330B" fill-opacity="0.5"/>
<path d="M92.6083 164.5C90.8674 164.501 89.4513 163.059 89.4864 161.322C89.521 159.622 90.9092 158.258 92.6064 158.258C94.3473 158.257 95.7634 159.699 95.7283 161.436C95.6937 163.137 94.3055 164.5 92.6083 164.5Z" fill="#00330B" fill-opacity="0.5"/>
<path d="M107.264 161.436C107.229 163.18 105.762 164.568 104.029 164.498C102.327 164.429 100.988 163.015 101.022 161.323C101.057 159.578 102.523 158.19 104.257 158.261C105.96 158.33 107.298 159.744 107.264 161.436Z" fill="#00330B" fill-opacity="0.5"/>
<path d="M61.5374 47.2249C61.5125 48.9395 60.1589 50.2613 58.4396 50.2502C56.6784 50.2387 55.3316 48.8342 55.3864 47.0658C55.4393 45.3566 56.8188 44.0588 58.541 44.0978C60.2512 44.1372 61.5624 45.5051 61.5374 47.2249Z" fill="#00330B" fill-opacity="0.5"/>
<path d="M138.272 146.767C139.991 146.759 141.343 148.083 141.365 149.798C141.388 151.563 140.013 152.94 138.248 152.919C136.533 152.899 135.207 151.55 135.213 149.831C135.219 148.112 136.553 146.776 138.272 146.767Z" fill="#00330B" fill-opacity="0.5"/>
<path d="M50.2031 58.445C50.2189 60.1855 48.8981 61.5236 47.1619 61.5265C45.4248 61.5294 44.0987 60.196 44.1093 58.4565C44.1193 56.767 45.409 55.4601 47.0927 55.4327C48.8346 55.4044 50.1872 56.7141 50.2031 58.445Z" fill="#00330B" fill-opacity="0.5"/>
<path d="M152.901 138.587C152.877 140.301 151.524 141.625 149.805 141.615C148.044 141.604 146.696 140.2 146.75 138.433C146.802 136.724 148.181 135.425 149.902 135.463C151.613 135.5 152.925 136.867 152.901 138.587Z" fill="#00330B" fill-opacity="0.5"/>
<path d="M118.495 161.36C118.504 163.098 117.176 164.431 115.439 164.426C113.703 164.422 112.384 163.082 112.401 161.341C112.418 159.653 113.714 158.354 115.4 158.332C117.143 158.311 118.487 159.625 118.495 161.36Z" fill="#00330B" fill-opacity="0.5"/>
<path d="M35.6631 78.2958C37.3834 78.3145 38.6903 79.6844 38.6446 81.4205C38.6013 83.0894 37.2651 84.3636 35.5775 84.3449C33.8572 84.3257 32.5503 82.9562 32.5955 81.2201C32.6388 79.5517 33.9755 78.277 35.6631 78.2958Z" fill="#00330B" fill-opacity="0.5"/>
<path d="M46.9615 135.301C48.6241 135.318 49.9358 136.649 49.9324 138.315C49.9291 140.024 48.5476 141.36 46.8317 141.315C45.1758 141.27 43.8872 139.912 43.9184 138.243C43.9492 136.583 45.2941 135.283 46.9615 135.301Z" fill="#00330B" fill-opacity="0.5"/>
<path d="M35.5645 118.474C33.9043 118.447 32.6003 117.107 32.6133 115.439C32.6267 113.731 34.0173 112.404 35.7337 112.46C37.3876 112.514 38.6676 113.881 38.6273 115.551C38.5874 117.208 37.2329 118.5 35.5645 118.474Z" fill="#00330B" fill-opacity="0.5"/>
<path d="M61.4682 149.859C61.461 151.524 60.1387 152.845 58.4742 152.851C56.7635 152.857 55.4181 151.485 55.4542 149.771C55.4888 148.113 56.8375 146.816 58.5054 146.837C60.1676 146.858 61.4754 148.192 61.4682 149.859Z" fill="#00330B" fill-opacity="0.5"/>
<path d="M161.102 67.0084C162.769 66.9949 164.11 68.2985 164.137 69.9587C164.165 71.6732 162.814 73.0369 161.101 73.0224C159.438 73.0085 158.123 71.6804 158.123 70.0149C158.124 68.349 159.439 67.0219 161.102 67.0084Z" fill="#00330B" fill-opacity="0.5"/>
<path d="M84.3092 161.436C84.2823 163.096 82.9413 164.4 81.2744 164.386C79.567 164.372 78.2395 162.982 78.2962 161.265C78.3505 159.612 79.7185 158.332 81.3878 158.372C83.0441 158.413 84.3362 159.767 84.3092 161.436Z" fill="#00330B" fill-opacity="0.5"/>
<path d="M127.016 32.646C128.668 32.6638 130.01 34.0486 129.977 35.6987C129.943 37.3498 128.544 38.6807 126.895 38.6308C125.29 38.5817 123.991 37.2416 123.992 35.6358C123.993 33.9842 125.364 32.6283 127.016 32.646Z" fill="#00330B" fill-opacity="0.5"/>
<path d="M72.9709 35.691C72.9373 37.3205 71.5006 38.6807 69.887 38.6115C68.2965 38.5433 66.9906 37.1633 67.0232 35.5858C67.0569 33.9568 68.4936 32.5961 70.1072 32.6653C71.6977 32.734 73.0036 34.1135 72.9709 35.691Z" fill="#00330B" fill-opacity="0.5"/>
<path d="M161.142 124.029C162.769 124.036 164.148 125.452 164.104 127.072C164.061 128.659 162.7 129.984 161.119 129.976C159.491 129.969 158.113 128.553 158.156 126.933C158.199 125.346 159.561 124.021 161.142 124.029Z" fill="#00330B" fill-opacity="0.5"/>
<path d="M35.5838 66.87C37.1695 66.846 38.5297 68.1856 38.535 69.777C38.5403 71.3661 37.1868 72.7134 35.5996 72.6994C34.051 72.6855 32.7484 71.4031 32.7061 69.8501C32.6623 68.2687 33.9899 66.8945 35.5838 66.87Z" fill="#00330B" fill-opacity="0.5"/>
<path d="M126.984 158.465C128.575 158.465 129.918 159.821 129.899 161.408C129.88 163.002 128.509 164.332 126.926 164.294C125.374 164.257 124.088 162.957 124.069 161.408C124.05 159.821 125.394 158.465 126.984 158.465Z" fill="#00330B" fill-opacity="0.5"/>
<path d="M38.485 127.009C38.4812 128.6 37.2329 129.855 35.6424 129.868C34.0087 129.88 32.72 128.573 32.7551 126.939C32.7892 125.351 34.0654 124.119 35.6554 124.138C37.2449 124.157 38.4889 125.419 38.485 127.009Z" fill="#00330B" fill-opacity="0.5"/>
<path d="M69.8125 164.244C68.223 164.269 66.9416 163.041 66.9012 161.454C66.8598 159.82 68.1437 158.508 69.7775 158.514C71.3684 158.52 72.6215 159.771 72.6311 161.361C72.6412 162.951 71.4011 164.219 69.8125 164.244Z" fill="#00330B" fill-opacity="0.5"/>
<path d="M149.817 50.0392C148.227 50.0354 146.972 48.7861 146.96 47.1956C146.948 45.5619 148.255 44.2737 149.89 44.3097C151.478 44.3443 152.71 45.621 152.69 47.211C152.67 48.8001 151.408 50.0431 149.817 50.0392Z" fill="#00330B" fill-opacity="0.5"/>
<path d="M152.625 149.86C152.617 151.467 151.368 152.677 149.751 152.643C148.197 152.611 147.018 151.393 147.025 149.827C147.033 148.22 148.282 147.01 149.899 147.044C151.454 147.076 152.633 148.294 152.625 149.86Z" fill="#00330B" fill-opacity="0.5"/>
<path d="M138.332 32.8388C139.935 32.8585 141.135 34.1212 141.089 35.7396C141.045 37.2907 139.815 38.4577 138.246 38.439C136.644 38.4192 135.444 37.1566 135.49 35.5382C135.534 33.9871 136.763 32.8196 138.332 32.8388Z" fill="#00330B" fill-opacity="0.5"/>
<path d="M175.446 92.8771C175.436 94.4176 174.216 95.6327 172.674 95.6365C171.088 95.6404 169.848 94.3695 169.886 92.7785C169.922 91.2447 171.17 90.0532 172.715 90.0767C174.253 90.0998 175.456 91.3332 175.446 92.8771Z" fill="#00330B" fill-opacity="0.5"/>
<path d="M106.923 24.308C106.935 25.8524 105.735 27.0877 104.197 27.1132C102.606 27.1396 101.347 25.8909 101.363 24.3013C101.378 22.7622 102.604 21.5519 104.146 21.5534C105.688 21.5553 106.911 22.768 106.923 24.308Z" fill="#00330B" fill-opacity="0.5"/>
<path d="M92.8304 21.5539C94.3728 21.55 95.6009 22.7589 95.6182 24.2975C95.636 25.8875 94.38 27.1382 92.7886 27.1136C91.2509 27.0901 90.0483 25.8567 90.0584 24.3129C90.068 22.7719 91.2884 21.5572 92.8304 21.5539Z" fill="#00330B" fill-opacity="0.5"/>
<path d="M161.114 61.2795C159.507 61.2718 158.297 60.0225 158.33 58.4056C158.363 56.8511 159.581 55.6721 161.147 55.6793C162.753 55.687 163.964 56.9362 163.93 58.5532C163.898 60.1081 162.68 61.2872 161.114 61.2795Z" fill="#00330B" fill-opacity="0.5"/>
<path d="M175.446 104.153C175.45 105.696 174.241 106.924 172.703 106.941C171.113 106.959 169.862 105.703 169.886 104.112C169.909 102.574 171.142 101.372 172.686 101.381C174.227 101.391 175.442 102.612 175.446 104.153Z" fill="#00330B" fill-opacity="0.5"/>
<path d="M49.956 47.2014C49.944 48.8063 48.689 50.0128 47.072 49.9748C45.519 49.9378 44.3443 48.715 44.3563 47.148C44.3688 45.5431 45.6233 44.3366 47.2403 44.3746C48.7933 44.4116 49.968 45.634 49.956 47.2014Z" fill="#00330B" fill-opacity="0.5"/>
<path d="M172.685 84.0844C171.164 84.0949 169.897 82.8323 169.902 81.311C169.908 79.7882 171.182 78.5351 172.705 78.5568C174.181 78.5774 175.404 79.7964 175.43 81.273C175.456 82.7952 174.208 84.0738 172.685 84.0844Z" fill="#00330B" fill-opacity="0.5"/>
<path d="M163.894 138.494C163.919 140.016 162.669 141.293 161.146 141.303C159.625 141.311 158.359 140.048 158.366 138.526C158.373 137.05 159.581 135.814 161.056 135.775C162.577 135.734 163.869 136.972 163.894 138.494Z" fill="#00330B" fill-opacity="0.5"/>
<path d="M49.6892 149.817C49.7041 151.338 48.4457 152.609 46.9235 152.608C45.4012 152.607 44.1443 151.335 44.1611 149.813C44.1775 148.336 45.3926 147.109 46.8692 147.08C48.3919 147.048 49.6743 148.293 49.6892 149.817Z" fill="#00330B" fill-opacity="0.5"/>
<path d="M172.716 112.953C174.186 112.984 175.423 114.253 175.411 115.718C175.398 117.232 174.061 118.508 172.559 118.441C171.087 118.375 169.874 117.078 169.922 115.619C169.97 114.148 171.253 112.923 172.716 112.953Z" fill="#00330B" fill-opacity="0.5"/>
<path d="M84.0463 24.3768C84.0199 25.8476 82.7543 27.0867 81.2878 27.0776C79.7742 27.0685 78.4952 25.7351 78.5581 24.2326C78.6201 22.7603 79.9146 21.5452 81.3743 21.589C82.8451 21.6337 84.0728 22.9141 84.0463 24.3768Z" fill="#00330B" fill-opacity="0.5"/>
<path d="M58.4805 38.4024C56.9592 38.413 55.6922 37.1503 55.6975 35.629C55.7028 34.1063 56.9775 32.8532 58.4997 32.8749C59.9763 32.8955 61.1996 34.1145 61.2255 35.5911C61.2515 37.1133 60.0037 38.3919 58.4805 38.4024Z" fill="#00330B" fill-opacity="0.5"/>
<path d="M38.3644 58.4469C38.3841 59.911 37.1521 61.1862 35.6813 61.2237C34.1744 61.2621 32.8598 59.9643 32.8757 58.4541C32.8911 56.9847 34.1485 55.7374 35.6164 55.735C37.0839 55.7331 38.3446 56.9771 38.3644 58.4469Z" fill="#00330B" fill-opacity="0.5"/>
<path d="M115.628 27.0776C114.158 27.0464 112.921 25.776 112.935 24.3109C112.949 22.7968 114.286 21.5217 115.788 21.5899C117.261 21.6567 118.473 22.9545 118.424 24.4133C118.375 25.8846 117.09 27.1089 115.628 27.0776Z" fill="#00330B" fill-opacity="0.5"/>
<path d="M141.053 161.396C141.044 162.918 139.767 164.168 138.244 164.144C136.723 164.119 135.485 162.826 135.525 161.306C135.564 159.831 136.8 158.622 138.276 158.616C139.798 158.608 141.062 159.874 141.053 161.396Z" fill="#00330B" fill-opacity="0.5"/>
<path d="M106.887 172.699C106.878 174.167 105.626 175.42 104.157 175.429C102.645 175.438 101.353 174.118 101.399 172.612C101.443 171.141 102.724 169.913 104.186 169.94C105.657 169.967 106.896 171.232 106.887 172.699Z" fill="#00330B" fill-opacity="0.5"/>
<path d="M21.4048 81.3513C21.3851 79.8728 22.6324 78.6236 24.1109 78.6414C25.5514 78.6582 26.7439 79.8497 26.7637 81.2903C26.7834 82.7688 25.536 84.018 24.0575 84.0002C22.6175 83.9829 21.4245 82.7919 21.4048 81.3513Z" fill="#00330B" fill-opacity="0.5"/>
<path d="M38.3389 138.297C38.3461 139.756 37.0925 141.019 35.6304 141.026C34.1715 141.033 32.9089 139.78 32.9016 138.318C32.8944 136.859 34.148 135.596 35.6102 135.589C37.069 135.582 38.3317 136.835 38.3389 138.297Z" fill="#00330B" fill-opacity="0.5"/>
<path d="M26.8031 104.122C26.8295 105.569 25.5822 106.854 24.1243 106.88C22.6766 106.907 21.3923 105.659 21.3658 104.201C21.3394 102.753 22.5862 101.469 24.0445 101.443C25.4923 101.416 26.7766 102.664 26.8031 104.122Z" fill="#00330B" fill-opacity="0.5"/>
<path d="M24.0816 89.9071C25.5404 89.9052 26.8011 91.1626 26.8031 92.6228C26.805 94.0816 25.5476 95.3424 24.0873 95.3443C22.6285 95.3462 21.3678 94.0888 21.3658 92.6286C21.3639 91.1698 22.6218 89.9095 24.0816 89.9071Z" fill="#00330B" fill-opacity="0.5"/>
<path d="M61.1798 161.189C61.1529 162.647 59.8681 163.894 58.4209 163.867C56.963 163.84 55.7162 162.555 55.7431 161.108C55.77 159.65 57.0548 158.403 58.5021 158.43C59.9604 158.457 61.2068 159.741 61.1798 161.189Z" fill="#00330B" fill-opacity="0.5"/>
<path d="M81.3104 170.005C82.7922 170.01 84.0242 171.276 83.9819 172.75C83.9401 174.192 82.7307 175.369 81.2945 175.364C79.8126 175.358 78.5807 174.092 78.623 172.619C78.6643 171.177 79.8742 170 81.3104 170.005Z" fill="#00330B" fill-opacity="0.5"/>
<path d="M95.326 172.647C95.351 174.096 94.1032 175.378 92.6448 175.403C91.1961 175.428 89.9137 174.18 89.8887 172.722C89.8637 171.273 91.1115 169.991 92.5699 169.966C94.0181 169.941 95.301 171.189 95.326 172.647Z" fill="#00330B" fill-opacity="0.5"/>
<path d="M115.447 170.005C116.928 170.004 118.164 171.266 118.127 172.741C118.092 174.182 116.886 175.363 115.449 175.364C113.968 175.365 112.732 174.103 112.769 172.628C112.804 171.187 114.01 170.006 115.447 170.005Z" fill="#00330B" fill-opacity="0.5"/>
<path d="M127.009 21.7082C128.485 21.7211 129.623 22.88 129.61 24.3576C129.597 25.8337 128.438 26.9714 126.96 26.9584C125.484 26.9454 124.346 25.787 124.359 24.309C124.372 22.8329 125.531 21.6957 127.009 21.7082Z" fill="#00330B" fill-opacity="0.5"/>
<path d="M172.681 67.3901C174.158 67.3978 175.299 68.5509 175.291 70.0294C175.284 71.5069 174.131 72.648 172.652 72.6403C171.175 72.6327 170.034 71.4795 170.041 70.001C170.048 68.524 171.202 67.3824 172.681 67.3901Z" fill="#00330B" fill-opacity="0.5"/>
<path d="M24.0306 118.092C22.5574 118.064 21.4312 116.891 21.4596 115.413C21.4874 113.939 22.6607 112.813 24.1388 112.842C25.6125 112.87 26.7382 114.043 26.7098 115.521C26.6815 116.994 25.5086 118.12 24.0306 118.092Z" fill="#00330B" fill-opacity="0.5"/>
<path d="M72.584 24.2965C72.6013 25.7976 71.4756 26.93 69.9769 26.9204C68.5287 26.9113 67.427 25.8168 67.4107 24.371C67.3934 22.8699 68.5191 21.7375 70.0178 21.7471C71.466 21.7562 72.5672 22.8502 72.584 24.2965Z" fill="#00330B" fill-opacity="0.5"/>
<path d="M163.691 47.1788C163.689 48.6117 162.585 49.7239 161.154 49.735C159.676 49.7465 158.54 48.5939 158.569 47.112C158.597 45.6864 159.728 44.5977 161.163 44.6131C162.594 44.6289 163.693 45.7445 163.691 47.1788Z" fill="#00330B" fill-opacity="0.5"/>
<path d="M129.545 172.689C129.543 174.122 128.439 175.234 127.009 175.245C125.531 175.257 124.394 174.104 124.423 172.623C124.451 171.197 125.581 170.109 127.017 170.123C128.448 170.138 129.547 171.254 129.545 172.689Z" fill="#00330B" fill-opacity="0.5"/>
<path d="M172.721 129.589C171.219 129.615 170.078 128.496 170.08 127C170.081 125.55 171.169 124.44 172.612 124.416C174.114 124.391 175.254 125.509 175.253 127.005C175.252 128.455 174.163 129.565 172.721 129.589Z" fill="#00330B" fill-opacity="0.5"/>
<path d="M149.858 38.1996C148.423 38.2145 147.293 37.1258 147.265 35.7002C147.236 34.2188 148.372 33.0661 149.85 33.0777C151.281 33.0887 152.385 34.2015 152.387 35.6343C152.388 37.0691 151.289 38.1847 149.858 38.1996Z" fill="#00330B" fill-opacity="0.5"/>
<path d="M26.6257 69.8415C26.5968 71.2584 25.4211 72.3702 23.9989 72.326C22.5852 72.2822 21.4845 71.0921 21.5437 69.6708C21.6004 68.3024 22.7357 67.23 24.1118 67.2435C25.5317 67.2579 26.655 68.4187 26.6257 69.8415Z" fill="#00330B" fill-opacity="0.5"/>
<path d="M161.137 152.385C159.717 152.388 158.578 151.242 158.589 149.821C158.601 148.402 159.759 147.276 161.181 147.302C162.554 147.328 163.654 148.434 163.672 149.808C163.69 151.23 162.556 152.381 161.137 152.385Z" fill="#00330B" fill-opacity="0.5"/>
<path d="M38.1432 47.1298C38.1701 48.5218 37.0017 49.7052 35.6077 49.6975C34.2581 49.6903 33.1232 48.5698 33.0973 47.2197C33.0703 45.8277 34.2388 44.6443 35.6327 44.652C36.9824 44.6587 38.1173 45.7791 38.1432 47.1298Z" fill="#00330B" fill-opacity="0.5"/>
<path d="M24.035 124.48C25.427 124.45 26.6123 125.616 26.6075 127.01C26.6031 128.359 25.4851 129.497 24.1345 129.525C22.7425 129.555 21.5572 128.389 21.562 126.995C21.5658 125.646 22.6838 124.508 24.035 124.48Z" fill="#00330B" fill-opacity="0.5"/>
<path d="M72.2894 172.653C72.3086 174.046 71.1343 175.223 69.7409 175.207C68.3912 175.193 67.2621 174.066 67.2434 172.717C67.2242 171.324 68.3984 170.147 69.7919 170.162C71.1416 170.176 72.2706 171.303 72.2894 172.653Z" fill="#00330B" fill-opacity="0.5"/>
<path d="M47.1018 38.1616C45.7084 38.1289 44.5683 36.9114 44.6346 35.5271C44.6995 34.1755 45.8651 33.0844 47.2109 33.1161C48.6044 33.1488 49.7445 34.3663 49.6782 35.7506C49.6128 37.1027 48.4481 38.1929 47.1018 38.1616Z" fill="#00330B" fill-opacity="0.5"/>
<path d="M152.348 161.382C152.347 162.776 151.156 163.938 149.766 163.902C148.414 163.868 147.301 162.727 147.302 161.377C147.304 159.983 148.494 158.821 149.885 158.857C151.236 158.891 152.349 160.032 152.348 161.382Z" fill="#00330B" fill-opacity="0.5"/>
<path d="M172.67 56.0196C174.018 56.0225 175.166 57.202 175.126 58.5411C175.087 59.8485 173.963 60.9425 172.662 60.9396C171.315 60.9367 170.166 59.7572 170.206 58.4181C170.245 57.1107 171.369 56.0167 172.67 56.0196Z" fill="#00330B" fill-opacity="0.5"/>
<path d="M140.98 24.3677C140.958 25.7154 139.762 26.8522 138.428 26.793C137.119 26.7349 136.038 25.5962 136.06 24.2989C136.082 22.9511 137.278 21.8144 138.612 21.8735C139.92 21.9317 141.002 23.0704 140.98 24.3677Z" fill="#00330B" fill-opacity="0.5"/>
<path d="M35.6332 152.303C34.2888 152.312 33.1314 151.14 33.1598 149.799C33.1876 148.493 34.3028 147.392 35.6068 147.383C36.9512 147.375 38.1086 148.547 38.0803 149.888C38.0524 151.194 36.9377 152.295 35.6332 152.303Z" fill="#00330B" fill-opacity="0.5"/>
<path d="M46.8683 163.609C45.5181 163.571 44.3948 162.366 44.4683 161.034C44.5404 159.722 45.6868 158.653 46.9826 158.688C48.3328 158.726 49.4561 159.93 49.3826 161.262C49.3105 162.575 48.1641 163.645 46.8683 163.609Z" fill="#00330B" fill-opacity="0.5"/>
<path d="M60.8203 24.3864C60.7953 25.7467 59.7264 26.7445 58.3507 26.6916C57.0423 26.6412 56.0777 25.6068 56.1017 24.2802C56.1267 22.9199 57.1957 21.922 58.5713 21.9749C59.8802 22.0259 60.8449 23.0603 60.8203 24.3864Z" fill="#00330B" fill-opacity="0.5"/>
<path d="M106.473 12.8381C106.454 14.1546 105.427 15.1467 104.103 15.1275C102.786 15.1082 101.794 14.081 101.813 12.7573C101.833 11.4403 102.859 10.4487 104.184 10.4679C105.5 10.4871 106.492 11.5138 106.473 12.8381Z" fill="#00330B" fill-opacity="0.5"/>
<path d="M92.8313 10.4679C94.1536 10.4646 95.1649 11.4701 95.1678 12.791C95.1712 14.1132 94.1656 15.1246 92.8448 15.1275C91.5225 15.1308 90.5112 14.1258 90.5083 12.8044C90.5049 11.4821 91.5105 10.4708 92.8313 10.4679Z" fill="#00330B" fill-opacity="0.5"/>
<path d="M140.619 172.725C140.6 174.041 139.573 175.033 138.249 175.014C136.932 174.995 135.94 173.968 135.96 172.644C135.979 171.327 137.005 170.335 138.33 170.355C139.646 170.374 140.638 171.401 140.619 172.725Z" fill="#00330B" fill-opacity="0.5"/>
<path d="M186.33 92.8997C186.31 94.2604 185.244 95.2636 183.87 95.2155C182.56 95.1694 181.592 94.1398 181.612 92.8132C181.632 91.4524 182.698 90.4493 184.072 90.4973C185.382 90.543 186.35 91.5735 186.33 92.8997Z" fill="#00330B" fill-opacity="0.5"/>
<path d="M186.301 104.168C186.298 105.489 185.287 106.495 183.964 106.491C182.644 106.488 181.638 105.477 181.641 104.155C181.645 102.833 182.656 101.828 183.978 101.832C185.299 101.835 186.304 102.846 186.301 104.168Z" fill="#00330B" fill-opacity="0.5"/>
<path d="M24.2767 60.8094C22.9597 60.7911 21.9672 59.7649 21.9854 58.4407C22.0037 57.1237 23.0299 56.1311 24.3541 56.1494C25.6711 56.1676 26.6637 57.1939 26.6454 58.5181C26.6267 59.8356 25.6005 60.8281 24.2767 60.8094Z" fill="#00330B" fill-opacity="0.5"/>
<path d="M172.763 136.135C174.098 136.186 175.121 137.295 175.069 138.634C175.017 139.97 173.909 140.993 172.569 140.941C171.234 140.889 170.211 139.781 170.263 138.441C170.314 137.106 171.424 136.083 172.763 136.135Z" fill="#00330B" fill-opacity="0.5"/>
<path d="M117.967 12.8097C117.96 14.0272 116.913 15.0755 115.696 15.0861C114.435 15.0967 113.348 13.9859 113.391 12.729C113.432 11.51 114.507 10.4862 115.719 10.5102C116.939 10.5338 117.974 11.5931 117.967 12.8097Z" fill="#00330B" fill-opacity="0.5"/>
<path d="M24.1291 136.02C25.3486 136.047 26.3825 137.108 26.3724 138.324C26.3623 139.586 25.2346 140.658 23.9825 140.595C22.7626 140.534 21.7527 139.444 21.7965 138.235C21.8402 137.015 22.9174 135.993 24.1291 136.02Z" fill="#00330B" fill-opacity="0.5"/>
<path d="M181.683 115.607C181.737 114.389 182.822 113.373 184.032 113.409C185.297 113.447 186.345 114.595 186.255 115.844C186.166 117.066 185.058 118.053 183.853 117.983C182.633 117.912 181.63 116.814 181.683 115.607Z" fill="#00330B" fill-opacity="0.5"/>
<path d="M186.259 81.3028C186.27 82.5184 185.237 83.5811 184.017 83.6085C182.759 83.6369 181.658 82.5395 181.683 81.2807C181.706 80.0612 182.765 79.0254 183.982 79.0321C185.199 79.0393 186.249 80.0853 186.259 81.3028Z" fill="#00330B" fill-opacity="0.5"/>
<path d="M58.4968 174.972C57.2831 174.994 56.2117 173.968 56.1733 172.748C56.1339 171.491 57.223 170.383 58.4833 170.396C59.7013 170.409 60.7453 171.46 60.7496 172.677C60.7535 173.894 59.7157 174.951 58.4968 174.972Z" fill="#00330B" fill-opacity="0.5"/>
<path d="M81.3363 10.5405C82.5514 10.5626 83.5997 11.6566 83.5593 12.8601C83.5185 14.0767 82.4096 15.1125 81.2108 15.0539C80.0366 14.9967 79.0416 13.958 79.045 12.7919C79.0488 11.5792 80.1279 10.5184 81.3363 10.5405Z" fill="#00330B" fill-opacity="0.5"/>
<path d="M106.4 184.19C106.42 185.399 105.357 186.476 104.145 186.477C102.932 186.478 101.868 185.402 101.886 184.193C101.903 183.023 102.912 182 104.085 181.963C105.289 181.926 106.381 182.975 106.4 184.19Z" fill="#00330B" fill-opacity="0.5"/>
<path d="M161.158 33.4305C162.367 33.4478 163.355 34.4615 163.338 35.6665C163.321 36.8754 162.307 37.8636 161.102 37.8463C159.894 37.829 158.905 36.8153 158.922 35.6103C158.939 34.4019 159.953 33.4137 161.158 33.4305Z" fill="#00330B" fill-opacity="0.5"/>
<path d="M94.8155 184.191C94.8328 185.396 93.845 186.411 92.6362 186.428C91.4311 186.445 90.4169 185.457 90.3996 184.249C90.3823 183.044 91.3701 182.029 92.5789 182.012C93.784 181.995 94.7977 182.983 94.8155 184.191Z" fill="#00330B" fill-opacity="0.5"/>
<path d="M12.8081 101.953C14.017 101.971 15.0048 102.985 14.9875 104.19C14.9702 105.399 13.956 106.386 12.7509 106.369C11.5426 106.352 10.5543 105.338 10.5716 104.133C10.5889 102.924 11.6027 101.936 12.8081 101.953Z" fill="#00330B" fill-opacity="0.5"/>
<path d="M14.9875 92.6536C14.9707 93.8619 13.9565 94.8507 12.7515 94.8338C11.5431 94.817 10.5544 93.8033 10.5712 92.5978C10.588 91.3894 11.6022 90.4007 12.8072 90.4175C14.0156 90.4348 15.0043 91.4485 14.9875 92.6536Z" fill="#00330B" fill-opacity="0.5"/>
<path d="M172.672 45.0663C173.873 45.0692 174.778 45.9796 174.775 47.1807C174.772 48.3809 173.861 49.286 172.66 49.2831C171.461 49.2803 170.555 48.3694 170.558 47.1687C170.561 45.9685 171.471 45.0629 172.672 45.0663Z" fill="#00330B" fill-opacity="0.5"/>
<path d="M117.557 184.207C117.563 185.408 116.66 186.323 115.461 186.328C114.26 186.335 113.346 185.432 113.34 184.233C113.334 183.032 114.237 182.117 115.436 182.112C116.636 182.106 117.551 183.009 117.557 184.207Z" fill="#00330B" fill-opacity="0.5"/>
<path d="M151.933 24.3677C151.917 25.5626 150.992 26.4585 149.79 26.4417C148.596 26.4254 147.7 25.4996 147.716 24.2989C147.733 23.1045 148.659 22.2085 149.859 22.2249C151.054 22.2417 151.95 23.167 151.933 24.3677Z" fill="#00330B" fill-opacity="0.5"/>
<path d="M183.958 72.1241C182.759 72.1178 181.856 71.2032 181.863 70.002C181.869 68.8037 182.784 67.9006 183.985 67.9073C185.183 67.9135 186.087 68.8282 186.08 70.0294C186.073 71.2272 185.158 72.1303 183.958 72.1241Z" fill="#00330B" fill-opacity="0.5"/>
<path d="M163.238 161.39C163.234 162.589 162.32 163.493 161.119 163.487C159.92 163.483 159.016 162.569 159.022 161.368C159.026 160.169 159.94 159.265 161.141 159.271C162.34 159.276 163.244 160.189 163.238 161.39Z" fill="#00330B" fill-opacity="0.5"/>
<path d="M12.7688 79.2119C13.9699 79.2071 14.8827 80.1107 14.888 81.3095C14.8928 82.5107 13.9892 83.4235 12.7904 83.4287C11.5892 83.434 10.6765 82.5304 10.6712 81.3311C10.6659 80.13 11.5695 79.2172 12.7688 79.2119Z" fill="#00330B" fill-opacity="0.5"/>
<path d="M72.0572 12.8131C72.0476 13.9268 71.093 14.8669 69.9817 14.8573C68.868 14.8477 67.9278 13.8931 67.9375 12.7818C67.9471 11.6681 68.9012 10.728 70.0129 10.7376C71.1261 10.7472 72.0668 11.7018 72.0572 12.8131Z" fill="#00330B" fill-opacity="0.5"/>
<path d="M174.726 149.84C174.729 150.951 173.783 151.901 172.67 151.904C171.558 151.906 170.608 150.96 170.606 149.847C170.604 148.735 171.55 147.786 172.662 147.784C173.774 147.781 174.724 148.727 174.726 149.84Z" fill="#00330B" fill-opacity="0.5"/>
<path d="M127.005 10.7155C128.182 10.7265 129.108 11.6974 129.066 12.8765C129.027 14.0041 128.095 14.891 126.963 14.8804C125.786 14.8688 124.861 13.8984 124.902 12.7193C124.941 11.5912 125.872 10.7044 127.005 10.7155Z" fill="#00330B" fill-opacity="0.5"/>
<path d="M37.7025 35.6266C37.7087 36.7596 36.8186 37.6863 35.69 37.7213C34.51 37.7579 33.5443 36.8292 33.5381 35.6511C33.5313 34.4721 34.4859 33.5324 35.6659 33.5564C36.7969 33.5795 37.6963 34.4937 37.7025 35.6266Z" fill="#00330B" fill-opacity="0.5"/>
<path d="M12.7928 113.384C13.9704 113.392 14.899 114.358 14.8615 115.538C14.826 116.666 13.8983 117.556 12.7658 117.549C11.5877 117.542 10.6596 116.576 10.6971 115.396C10.7326 114.267 11.6598 113.377 12.7928 113.384Z" fill="#00330B" fill-opacity="0.5"/>
<path d="M81.269 182.138C82.4019 182.121 83.3392 183.003 83.3849 184.129C83.433 185.308 82.5115 186.285 81.3358 186.303C80.1568 186.321 79.207 185.375 79.22 184.196C79.2325 183.064 80.1376 182.155 81.269 182.138Z" fill="#00330B" fill-opacity="0.5"/>
<path d="M184.011 124.92C185.186 124.941 186.104 125.921 186.053 127.1C186.004 128.226 185.065 129.105 183.932 129.085C182.757 129.064 181.838 128.084 181.889 126.905C181.938 125.779 182.877 124.9 184.011 124.92Z" fill="#00330B" fill-opacity="0.5"/>
<path d="M47.1547 26.3595C46.0569 26.3585 45.0927 25.3655 45.1301 24.2744C45.1667 23.2184 46.1064 22.3066 47.1576 22.3075C48.2554 22.3085 49.2196 23.302 49.1821 24.3926C49.1456 25.4491 48.2059 26.3605 47.1547 26.3595Z" fill="#00330B" fill-opacity="0.5"/>
<path d="M149.857 174.71C148.764 174.731 147.783 173.752 147.799 172.659C147.815 171.604 148.738 170.678 149.793 170.658C150.885 170.637 151.867 171.616 151.851 172.709C151.835 173.764 150.912 174.691 149.857 174.71Z" fill="#00330B" fill-opacity="0.5"/>
<path d="M24.2863 44.9735C25.3635 44.9567 26.2686 45.8354 26.2854 46.9154C26.3022 47.9926 25.4236 48.8976 24.3435 48.9145C23.2659 48.9313 22.3613 48.0531 22.3445 46.9731C22.3281 45.895 23.2068 44.9904 24.2863 44.9735Z" fill="#00330B" fill-opacity="0.5"/>
<path d="M37.5905 161.12C37.6074 162.197 36.7287 163.102 35.6491 163.119C34.572 163.136 33.6669 162.257 33.6501 161.177C33.6333 160.1 34.5119 159.195 35.5919 159.178C36.6691 159.162 37.5737 160.04 37.5905 161.12Z" fill="#00330B" fill-opacity="0.5"/>
<path d="M126.971 182.313C128.047 182.307 128.87 183.108 128.89 184.178C128.912 185.302 128.063 186.149 126.939 186.127C125.868 186.105 125.069 185.28 125.077 184.204C125.086 183.13 125.897 182.32 126.971 182.313Z" fill="#00330B" fill-opacity="0.5"/>
<path d="M14.6856 69.7314C14.7115 70.8129 13.9309 71.6516 12.861 71.691C11.7387 71.7323 10.8701 70.8979 10.8725 69.7804C10.8744 68.7061 11.6815 67.8905 12.7548 67.8784C13.8319 67.8659 14.6601 68.6609 14.6856 69.7314Z" fill="#00330B" fill-opacity="0.5"/>
<path d="M24.1263 151.686C23.127 151.709 22.281 150.913 22.2421 149.914C22.2017 148.871 23.0549 147.992 24.0998 148.002C25.1011 148.01 25.9191 148.829 25.9264 149.831C25.934 150.831 25.127 151.663 24.1263 151.686Z" fill="#00330B" fill-opacity="0.5"/>
<path d="M46.8336 174.552C45.7694 174.507 44.9984 173.642 45.0595 172.564C45.1172 171.548 45.93 170.8 46.9595 170.817C48.0285 170.834 48.8245 171.673 48.7932 172.748C48.762 173.813 47.9088 174.598 46.8336 174.552Z" fill="#00330B" fill-opacity="0.5"/>
<path d="M69.7952 185.857C68.719 185.872 67.8986 185.064 67.8986 183.99C67.8986 182.915 68.719 182.107 69.7952 182.122C70.8215 182.136 71.6069 182.909 71.6343 183.932C71.6631 185.007 70.8652 185.843 69.7952 185.857Z" fill="#00330B" fill-opacity="0.5"/>
<path d="M12.788 128.87C11.7122 128.875 10.9014 128.058 10.9115 126.982C10.922 125.911 11.7531 125.11 12.8283 125.135C13.8517 125.158 14.6289 125.941 14.6472 126.965C14.6659 128.041 13.8608 128.866 12.788 128.87Z" fill="#00330B" fill-opacity="0.5"/>
<path d="M138.542 10.9861C139.511 11 140.362 11.8859 140.332 12.8481C140.3 13.8181 139.399 14.6573 138.441 14.6088C137.515 14.5622 136.712 13.7253 136.708 12.8039C136.705 11.8368 137.577 10.9721 138.542 10.9861Z" fill="#00330B" fill-opacity="0.5"/>
<path d="M183.925 60.2912C182.955 60.2624 182.113 59.3635 182.16 58.4046C182.206 57.4351 183.12 56.6074 184.075 56.6699C185.001 56.7305 185.793 57.5789 185.782 58.4974C185.771 59.4669 184.888 60.3196 183.925 60.2912Z" fill="#00330B" fill-opacity="0.5"/>
<path d="M185.654 138.571C185.637 139.527 184.923 140.223 183.966 140.221C182.967 140.218 182.241 139.451 182.288 138.447C182.334 137.5 183.074 136.824 184.033 136.856C184.985 136.887 185.671 137.613 185.654 138.571Z" fill="#00330B" fill-opacity="0.5"/>
<path d="M60.0998 12.8419C60.0768 13.7907 59.3149 14.4886 58.3598 14.4353C57.4605 14.3853 56.8011 13.6633 56.8232 12.7534C56.8462 11.8046 57.6086 11.1067 58.5632 11.1601C59.4625 11.21 60.1219 11.932 60.0998 12.8419Z" fill="#00330B" fill-opacity="0.5"/>
<path d="M138.282 182.612C139.15 182.608 139.893 183.344 139.897 184.212C139.901 185.08 139.166 185.823 138.297 185.828C137.429 185.832 136.686 185.096 136.681 184.228C136.677 183.36 137.413 182.617 138.282 182.612Z" fill="#00330B" fill-opacity="0.5"/>
<path d="M161.34 25.9014C160.52 25.8889 159.798 25.1607 159.793 24.3417C159.788 23.4813 160.587 22.7171 161.439 22.7656C162.255 22.8122 162.958 23.5755 162.929 24.383C162.899 25.204 162.156 25.9139 161.34 25.9014Z" fill="#00330B" fill-opacity="0.5"/>
<path d="M174.234 35.6593C174.221 36.4793 173.493 37.2018 172.674 37.2066C171.814 37.2119 171.05 36.4135 171.098 35.5603C171.145 34.7446 171.908 34.0414 172.716 34.0707C173.537 34.1005 174.246 34.8432 174.234 35.6593Z" fill="#00330B" fill-opacity="0.5"/>
<path d="M14.3472 58.4748C14.3501 59.2929 13.6334 60.0273 12.8129 60.0475C11.955 60.0682 11.1787 59.2828 11.2114 58.4267C11.2431 57.6063 11.9877 56.8973 12.8033 56.9112C13.6233 56.9261 14.3443 57.6562 14.3472 58.4748Z" fill="#00330B" fill-opacity="0.5"/>
<path d="M12.7846 139.803C11.9334 139.806 11.2282 139.104 11.2917 138.256C11.359 137.363 11.8795 136.858 12.7745 136.82C13.6243 136.783 14.304 137.51 14.2742 138.36C14.2463 139.167 13.5926 139.8 12.7846 139.803Z" fill="#00330B" fill-opacity="0.5"/>
<path d="M105.64 1.49016C105.607 2.39909 104.879 3.07105 104.032 2.97636C103.137 2.8759 102.661 2.3294 102.656 1.4373C102.651 0.58605 103.408 -0.0849736 104.255 0.00875508C105.153 0.10729 105.591 0.662468 105.64 1.49016Z" fill="#00330B" fill-opacity="0.5"/>
<path d="M94.3362 1.52043C94.2848 2.426 93.5431 3.08067 92.6972 2.97204C91.7993 2.85716 91.3417 2.29527 91.3513 1.40749C91.3605 0.558641 92.1329 -0.0941143 92.9789 0.0125922C93.8801 0.126028 94.2968 0.696102 94.3362 1.52043Z" fill="#00330B" fill-opacity="0.5"/>
<path d="M194.012 104.076C194.06 103.228 194.802 102.573 195.647 102.682C196.545 102.797 197.003 103.359 196.993 104.247C196.984 105.095 196.215 105.728 195.365 105.647C194.559 105.57 193.966 104.883 194.012 104.076Z" fill="#00330B" fill-opacity="0.5"/>
<path d="M195.516 94.3537C194.606 94.3239 193.93 93.5985 194.022 92.7511C194.12 91.8576 194.663 91.3769 195.556 91.3692C196.408 91.3615 197.083 92.1143 196.992 92.9621C196.896 93.8586 196.344 94.3022 195.516 94.3537Z" fill="#00330B" fill-opacity="0.5"/>
<path d="M58.5208 185.484C57.6235 185.493 56.9145 184.795 56.9731 183.947C57.0351 183.053 57.5523 182.546 58.4473 182.502C59.2966 182.461 60.0061 183.185 59.9489 184.033C59.8888 184.929 59.3634 185.404 58.5208 185.484Z" fill="#00330B" fill-opacity="0.5"/>
<path d="M115.818 2.89704C114.893 2.82494 114.34 2.4082 114.31 1.54685C114.279 0.691761 114.772 0.158728 115.625 0.12412C116.48 0.0895126 117.006 0.585547 117.05 1.43872C117.095 2.31208 116.54 2.73265 115.818 2.89704Z" fill="#00330B" fill-opacity="0.5"/>
<path d="M195.468 82.7198C194.64 82.5957 194.111 82.1516 194.137 81.2869C194.163 80.4323 194.686 79.93 195.541 79.9516C196.395 79.9733 196.894 80.4986 196.877 81.3542C196.86 82.2179 196.312 82.6395 195.468 82.7198Z" fill="#00330B" fill-opacity="0.5"/>
<path d="M37.0195 24.3806C36.8916 25.2054 36.4451 25.7337 35.5804 25.7034C34.7258 25.6731 34.2259 25.1483 34.2514 24.2936C34.2768 23.4395 34.8051 22.9425 35.6602 22.9636C36.5234 22.9853 36.9431 23.5342 37.0195 24.3806Z" fill="#00330B" fill-opacity="0.5"/>
<path d="M161.091 174.084C160.264 173.96 159.734 173.515 159.76 172.651C159.786 171.796 160.309 171.294 161.164 171.316C162.018 171.337 162.517 171.862 162.5 172.718C162.483 173.582 161.935 174.003 161.091 174.084Z" fill="#00330B" fill-opacity="0.5"/>
<path d="M174.062 161.484C173.905 162.295 173.438 162.811 172.577 162.749C171.727 162.687 171.24 162.144 171.298 161.29C171.355 160.441 171.901 159.957 172.755 160.011C173.612 160.065 174.021 160.626 174.062 161.484Z" fill="#00330B" fill-opacity="0.5"/>
<path d="M25.6658 35.6641C25.5408 36.4452 25.1135 36.9288 24.3137 36.971C23.5889 37.0095 22.8866 36.2645 22.9832 35.5526C23.0895 34.7725 23.5764 34.2784 24.3724 34.3154C25.1635 34.3529 25.5793 34.883 25.6658 35.6641Z" fill="#00330B" fill-opacity="0.5"/>
<path d="M82.6529 1.46804C82.5664 2.24863 82.1506 2.74227 81.359 2.82494C80.6433 2.89992 79.9112 2.18471 79.9699 1.46516C80.0347 0.673997 80.5087 0.172185 81.3013 0.169781C82.0992 0.166897 82.5284 0.686485 82.6529 1.46804Z" fill="#00330B" fill-opacity="0.5"/>
<path d="M196.858 115.714C196.739 116.495 196.315 116.981 195.516 117.03C194.79 117.074 194.085 116.337 194.175 115.621C194.274 114.839 194.759 114.344 195.554 114.374C196.347 114.404 196.765 114.933 196.858 115.714Z" fill="#00330B" fill-opacity="0.5"/>
<path d="M185.233 47.163C185.175 47.9128 184.781 48.4002 184.018 48.418C183.2 48.4367 182.712 47.9546 182.728 47.1355C182.743 46.3747 183.22 45.9243 183.982 45.9291C184.745 45.9349 185.155 46.3992 185.233 47.163Z" fill="#00330B" fill-opacity="0.5"/>
<path d="M104.128 196.787C103.362 196.705 102.893 196.293 102.899 195.53C102.906 194.708 103.41 194.242 104.224 194.283C104.984 194.322 105.418 194.819 105.388 195.578C105.358 196.342 104.875 196.732 104.128 196.787Z" fill="#00330B" fill-opacity="0.5"/>
<path d="M2.50521 92.6012C2.45763 93.3428 2.0731 93.8389 1.31077 93.8687C0.495091 93.9004 -0.0028715 93.4284 1.24591e-05 92.6074C0.00289642 91.8465 0.47106 91.3875 1.23339 91.3808C1.99619 91.3741 2.41533 91.8297 2.50521 92.6012Z" fill="#00330B" fill-opacity="0.5"/>
<path d="M92.5982 194.26C93.3971 194.35 93.8623 194.767 93.8513 195.529C93.8397 196.351 93.3331 196.813 92.5184 196.766C91.757 196.723 91.3302 196.222 91.3624 195.465C91.3951 194.698 91.8907 194.322 92.5982 194.26Z" fill="#00330B" fill-opacity="0.5"/>
<path d="M151.087 12.7861C151.029 13.536 150.635 14.0234 149.872 14.0412C149.054 14.0599 148.566 13.5778 148.582 12.7587C148.597 11.9979 149.074 11.5475 149.836 11.5523C150.599 11.558 151.008 12.0224 151.087 12.7861Z" fill="#00330B" fill-opacity="0.5"/>
<path d="M35.4934 171.492C36.3057 171.538 36.7642 171.886 36.7892 172.623C36.8157 173.409 36.3874 173.861 35.5958 173.853C34.8647 173.846 34.4585 173.419 34.4484 172.688C34.4378 171.942 34.894 171.598 35.4934 171.492Z" fill="#00330B" fill-opacity="0.5"/>
<path d="M183.974 148.65C184.727 148.737 185.15 149.117 185.142 149.853C185.133 150.585 184.721 151.008 183.99 151.012C183.197 151.016 182.773 150.561 182.802 149.776C182.829 149.036 183.3 148.702 183.974 148.65Z" fill="#00330B" fill-opacity="0.5"/>
<path d="M116.642 195.473C116.572 196.253 116.205 196.689 115.467 196.696C114.738 196.704 114.299 196.306 114.279 195.574C114.258 194.786 114.696 194.346 115.486 194.355C116.229 194.365 116.565 194.833 116.642 195.473Z" fill="#00330B" fill-opacity="0.5"/>
<path d="M24.108 159.96C24.8218 160.032 25.2539 160.402 25.2553 161.14C25.2568 161.87 24.8535 162.304 24.1219 162.318C23.3322 162.333 22.8967 161.888 22.915 161.101C22.9323 160.362 23.3865 160.009 24.108 159.96Z" fill="#00330B" fill-opacity="0.5"/>
<path d="M2.43163 104.136C2.38357 104.858 2.03124 105.312 1.29343 105.33C0.505629 105.35 0.0605364 104.915 0.0744756 104.125C0.0874534 103.394 0.520047 102.99 1.25017 102.991C1.98798 102.992 2.35905 103.422 2.43163 104.136Z" fill="#00330B" fill-opacity="0.5"/>
<path d="M195.514 68.8667C196.199 68.9738 196.66 69.3454 196.628 70.0688C196.6 70.7215 196.171 71.145 195.511 71.1368C194.797 71.1277 194.363 70.6783 194.386 69.9626C194.408 69.3036 194.855 68.957 195.514 68.8667Z" fill="#00330B" fill-opacity="0.5"/>
<path d="M126.991 0.343773C127.676 0.45096 128.136 0.822499 128.105 1.54589C128.077 2.19863 127.647 2.62211 126.988 2.61394C126.274 2.60481 125.839 2.15539 125.863 1.43969C125.885 0.780707 126.332 0.434137 126.991 0.343773Z" fill="#00330B" fill-opacity="0.5"/>
<path d="M47.1239 11.6403C47.8579 11.7643 48.3174 12.1396 48.277 12.8626C48.2405 13.5129 47.8093 13.9359 47.1479 13.9186C46.4356 13.9003 46.0049 13.4485 46.0347 12.7323C46.0626 12.0699 46.5298 11.7474 47.1239 11.6403Z" fill="#00330B" fill-opacity="0.5"/>
<path d="M1.19782 80.1718C1.8919 80.2453 2.36006 80.6029 2.36535 81.3244C2.37015 81.9844 1.94958 82.4165 1.29684 82.441C0.582099 82.4679 0.134124 82.0315 0.122108 81.3172C0.110572 80.651 0.552779 80.2982 1.19782 80.1718Z" fill="#00330B" fill-opacity="0.5"/>
<path d="M81.283 194.367C82.0155 194.501 82.4726 194.881 82.4227 195.604C82.3775 196.251 81.9434 196.673 81.2806 196.646C80.5697 196.618 80.141 196.163 80.1813 195.447C80.2183 194.787 80.687 194.466 81.283 194.367Z" fill="#00330B" fill-opacity="0.5"/>
<path d="M13.8397 46.9861C13.7262 47.6571 13.3427 48.044 12.6697 47.981C12.0559 47.9238 11.6954 47.4989 11.7363 46.8904C11.781 46.2266 12.216 45.845 12.8884 45.9065C13.5051 45.9627 13.8031 46.3881 13.8397 46.9861Z" fill="#00330B" fill-opacity="0.5"/>
<path d="M196.567 127.027C196.47 127.699 196.088 128.092 195.419 128.043C194.81 127.998 194.435 127.583 194.464 126.97C194.495 126.301 194.927 125.913 195.596 125.961C196.207 126.005 196.523 126.423 196.567 127.027Z" fill="#00330B" fill-opacity="0.5"/>
<path d="M2.30238 115.444C2.25624 116.056 1.93276 116.471 1.32376 116.509C0.657565 116.551 0.216319 116.16 0.201899 115.49C0.187479 114.822 0.606134 114.412 1.27665 114.423C1.88902 114.434 2.2298 114.83 2.30238 115.444Z" fill="#00330B" fill-opacity="0.5"/>
<path d="M68.9382 1.51561C68.9843 0.902773 69.3078 0.488443 69.9168 0.450471C70.583 0.408653 71.0242 0.798958 71.0387 1.469C71.0531 2.1376 70.6344 2.54759 69.9639 2.53605C69.3515 2.52499 69.0108 2.12894 68.9382 1.51561Z" fill="#00330B" fill-opacity="0.5"/>
<path d="M149.804 185.28C149.133 185.189 148.739 184.806 148.783 184.139C148.823 183.531 149.236 183.152 149.85 183.176C150.521 183.202 150.91 183.636 150.867 184.302C150.829 184.911 150.413 185.234 149.804 185.28Z" fill="#00330B" fill-opacity="0.5"/>
<path d="M1.45929 68.8816C1.97696 68.9431 2.33937 69.2176 2.35572 69.741C2.3735 70.3216 2.01397 70.684 1.43333 70.6658C0.913737 70.6494 0.583521 70.299 0.59025 69.7722C0.596979 69.2435 0.945461 68.9647 1.45929 68.8816Z" fill="#00330B" fill-opacity="0.5"/>
<path d="M46.8764 183.033C47.4609 183.053 47.8382 183.328 47.868 183.919C47.9007 184.557 47.5613 184.935 46.911 184.934C46.3231 184.932 45.99 184.592 45.9799 184.004C45.9703 183.413 46.3044 183.101 46.8764 183.033Z" fill="#00330B" fill-opacity="0.5"/>
<path d="M12.776 150.747C12.2597 150.672 11.9007 150.393 11.8978 149.868C11.8944 149.287 12.2607 148.929 12.8408 148.963C13.3552 148.993 13.6849 149.347 13.6637 149.877C13.6426 150.403 13.2907 150.677 12.776 150.747Z" fill="#00330B" fill-opacity="0.5"/>
<path d="M127.024 196.437C126.457 196.348 126.1 196.068 126.102 195.541C126.105 194.962 126.473 194.605 127.053 194.645C127.566 194.681 127.892 195.036 127.869 195.567C127.846 196.101 127.471 196.345 127.024 196.437Z" fill="#00330B" fill-opacity="0.5"/>
<path d="M196.19 138.537C196.144 138.931 195.937 139.198 195.536 139.206C195.078 139.216 194.811 138.937 194.84 138.483C194.866 138.091 195.13 137.851 195.534 137.869C195.937 137.886 196.142 138.145 196.19 138.537Z" fill="#00330B" fill-opacity="0.5"/>
<path d="M195.463 59.2438C195.014 59.1929 194.751 58.9425 194.75 58.4931C194.75 57.9831 195.046 57.7 195.55 57.7245C196.065 57.7495 196.311 58.0874 196.26 58.5805C196.215 59.0266 195.91 59.2405 195.463 59.2438Z" fill="#00330B" fill-opacity="0.5"/>
<path d="M173.432 24.3104C173.411 24.7901 173.164 25.0925 172.652 25.0901C172.203 25.0882 171.925 24.8276 171.909 24.3772C171.892 23.8716 172.169 23.5765 172.679 23.577C173.129 23.5774 173.378 23.8418 173.432 24.3104Z" fill="#00330B" fill-opacity="0.5"/>
<path d="M1.26508 127.769C0.783459 127.748 0.483526 127.499 0.48641 126.987C0.488813 126.538 0.751734 126.261 1.20115 126.246C1.70632 126.23 2.00145 126.508 1.99953 127.018C1.99857 127.468 1.73372 127.717 1.26508 127.769Z" fill="#00330B" fill-opacity="0.5"/>
<path d="M173.349 172.69C173.298 173.084 173.089 173.349 172.688 173.353C172.229 173.356 171.964 173.075 171.999 172.621C172.03 172.231 172.297 171.992 172.701 172.015C173.103 172.037 173.306 172.297 173.349 172.69Z" fill="#00330B" fill-opacity="0.5"/>
<path d="M160.678 12.7991C160.724 12.405 160.931 12.1377 161.332 12.1296C161.79 12.1204 162.057 12.3987 162.028 12.8539C162.002 13.2452 161.738 13.4855 161.334 13.4677C160.931 13.4499 160.726 13.1914 160.678 12.7991Z" fill="#00330B" fill-opacity="0.5"/>
<path d="M138.517 2.25921C138.033 2.22268 137.745 1.95975 137.764 1.45073C137.78 1.00083 138.055 0.737444 138.505 0.735521C139.014 0.733599 139.293 1.02729 139.277 1.5339C139.262 1.98572 138.983 2.22027 138.517 2.25921Z" fill="#00330B" fill-opacity="0.5"/>
<path d="M58.5126 2.17364C58.1055 2.1621 57.8311 1.95685 57.7945 1.56703C57.7522 1.11329 58.0147 0.827776 58.4723 0.824892C58.8703 0.822489 59.1173 1.07581 59.1308 1.47524C59.1447 1.88043 58.8938 2.09769 58.5126 2.17364Z" fill="#00330B" fill-opacity="0.5"/>
<path d="M184.013 34.9571C184.4 35.0282 184.657 35.2479 184.639 35.6497C184.619 36.1058 184.327 36.3601 183.875 36.3019C183.489 36.252 183.256 35.9727 183.302 35.5709C183.347 35.1786 183.611 34.9744 184.013 34.9571Z" fill="#00330B" fill-opacity="0.5"/>
<path d="M69.8015 196.295C69.279 196.256 68.9911 195.993 69.0098 195.484C69.0262 195.034 69.3011 194.771 69.7505 194.769C70.2595 194.767 70.5374 195.061 70.5229 195.567C70.5105 196.022 70.2216 196.245 69.8015 196.295Z" fill="#00330B" fill-opacity="0.5"/>
</svg>
