<svg width="216" height="216" viewBox="0 0 216 216" fill="none" xmlns="http://www.w3.org/2000/svg">
<path d="M215.146 107.786C214.487 107.759 213.964 107.502 213.999 106.771C214.03 106.113 214.539 105.886 215.146 105.87C215.146 106.509 215.146 107.147 215.146 107.786Z" fill="#00330B" fill-opacity="0.5"/>
<path d="M109.276 0C109.249 0.659691 108.992 1.18266 108.261 1.14773C107.603 1.11679 107.377 0.607295 107.36 0C107.999 0 108.638 0 109.276 0Z" fill="#00330B" fill-opacity="0.5"/>
<path d="M93.7072 0C93.7616 0.540927 93.601 0.956613 92.9887 0.956613C92.3764 0.956613 92.2157 0.540428 92.2701 0C92.7491 0 93.2282 0 93.7072 0Z" fill="#00330B" fill-opacity="0.5"/>
<path d="M215.146 92.4566C214.606 92.5109 214.19 92.3503 214.19 91.738C214.19 91.1257 214.606 90.965 215.146 91.0194C215.146 91.4985 215.146 91.9775 215.146 92.4566Z" fill="#00330B" fill-opacity="0.5"/>
<path d="M124.366 0C124.421 0.540927 124.26 0.956613 123.648 0.956613C123.036 0.956613 122.875 0.540428 122.929 0C123.408 0 123.887 0 124.366 0Z" fill="#00330B" fill-opacity="0.5"/>
<path d="M215.146 122.876C214.605 122.931 214.19 122.77 214.19 122.158C214.19 121.545 214.606 121.385 215.146 121.439C215.146 121.918 215.146 122.397 215.146 122.876Z" fill="#00330B" fill-opacity="0.5"/>
<path d="M114.875 106.82C114.88 110.458 111.998 113.362 108.357 113.385C104.672 113.408 101.732 110.462 101.762 106.777C101.792 103.136 104.701 100.259 108.34 100.272C111.981 100.285 114.869 103.178 114.875 106.82Z" fill="#00330B" fill-opacity="0.5"/>
<path d="M108.322 128.686C104.67 128.688 101.792 125.813 101.79 122.162C101.788 118.51 104.663 115.632 108.314 115.63C111.966 115.628 114.844 118.503 114.846 122.154C114.848 125.805 111.973 128.684 108.322 128.686Z" fill="#00330B" fill-opacity="0.5"/>
<path d="M92.9432 113.357C89.2949 113.335 86.4386 110.439 86.4601 106.783C86.4815 103.134 89.3778 100.278 93.034 100.3C96.6823 100.321 99.5387 103.218 99.5167 106.874C99.4957 110.522 96.5994 113.378 92.9432 113.357Z" fill="#00330B" fill-opacity="0.5"/>
<path d="M92.9368 128.633C89.3644 128.614 86.5055 125.722 86.5135 122.136C86.5215 118.509 89.4502 115.641 93.1005 115.682C96.6614 115.723 99.4943 118.643 99.4638 122.239C99.4339 125.804 96.5262 128.652 92.9368 128.633Z" fill="#00330B" fill-opacity="0.5"/>
<path d="M130.097 106.886C130.066 110.429 127.102 113.326 123.559 113.278C120.017 113.23 117.134 110.253 117.199 106.71C117.262 103.214 120.18 100.363 123.677 100.378C127.22 100.394 130.129 103.343 130.097 106.886Z" fill="#00330B" fill-opacity="0.5"/>
<path d="M108.344 97.9482C104.799 97.9621 101.866 95.0384 101.869 91.494C101.871 87.9495 104.808 85.0303 108.353 85.0488C111.849 85.0672 114.739 87.947 114.768 91.4436C114.798 94.9875 111.888 97.9347 108.344 97.9482Z" fill="#00330B" fill-opacity="0.5"/>
<path d="M123.782 115.815C127.336 115.911 130.122 118.845 129.987 122.351C129.852 125.867 126.981 128.593 123.513 128.5C119.959 128.404 117.173 125.47 117.308 121.964C117.444 118.449 120.314 115.721 123.782 115.815Z" fill="#00330B" fill-opacity="0.5"/>
<path d="M93.0121 85.1535C96.5481 85.1705 99.3925 88.0633 99.3336 91.5813C99.2747 95.0799 96.4473 97.8598 92.9652 97.8429C89.4292 97.8259 86.5848 94.9332 86.6437 91.4151C86.7026 87.9171 89.53 85.1371 93.0121 85.1535Z" fill="#00330B" fill-opacity="0.5"/>
<path d="M123.643 85.2818C127.066 85.2798 129.877 88.1002 129.865 91.5239C129.852 94.9451 127.018 97.7431 123.592 97.7151C120.219 97.6877 117.448 94.9072 117.431 91.5329C117.414 88.1082 120.221 85.2838 123.643 85.2818Z" fill="#00330B" fill-opacity="0.5"/>
<path d="M77.95 100.647C81.3233 100.686 84.1173 103.526 84.0789 106.879C84.0405 110.253 81.2001 113.047 77.8468 113.008C74.4734 112.97 71.6795 110.129 71.7179 106.776C71.7563 103.403 74.5967 100.609 77.95 100.647Z" fill="#00330B" fill-opacity="0.5"/>
<path d="M108.315 143.428C104.953 143.426 102.135 140.605 102.138 137.245C102.14 133.883 104.961 131.065 108.321 131.067C111.683 131.07 114.501 133.891 114.498 137.251C114.496 140.613 111.675 143.431 108.315 143.428Z" fill="#00330B" fill-opacity="0.5"/>
<path d="M83.9216 122.173C83.9156 125.562 81.2295 128.209 77.8242 128.181C74.4928 128.153 71.87 125.491 71.876 122.143C71.882 118.754 74.5681 116.107 77.9734 116.135C81.3043 116.163 83.9271 118.825 83.9216 122.173Z" fill="#00330B" fill-opacity="0.5"/>
<path d="M93.0365 143.271C89.6353 143.289 86.9611 140.631 86.9656 137.236C86.9701 133.894 89.6044 131.243 92.9402 131.225C96.3415 131.207 99.0157 133.865 99.0112 137.26C99.0072 140.602 96.3724 143.252 93.0365 143.271Z" fill="#00330B" fill-opacity="0.5"/>
<path d="M123.662 131.307C126.897 131.318 129.599 134.034 129.589 137.262C129.578 140.497 126.862 143.199 123.633 143.188C120.399 143.177 117.696 140.462 117.707 137.233C117.718 133.999 120.434 131.296 123.662 131.307Z" fill="#00330B" fill-opacity="0.5"/>
<path d="M83.8103 91.4795C83.8258 94.7245 81.0968 97.4432 77.8577 97.4102C74.6426 97.3778 72.0018 94.7271 71.9868 91.5174C71.9714 88.2724 74.7004 85.5538 77.9395 85.5867C81.1546 85.6191 83.7954 88.2698 83.8103 91.4795Z" fill="#00330B" fill-opacity="0.5"/>
<path d="M138.749 112.702C135.529 112.71 132.894 110.1 132.864 106.869C132.833 103.608 135.527 100.918 138.786 100.954C142.018 100.989 144.626 103.627 144.612 106.846C144.598 110.075 141.976 112.693 138.749 112.702Z" fill="#00330B" fill-opacity="0.5"/>
<path d="M114.192 76.4588C114.155 79.6909 111.516 82.2977 108.297 82.2823C105.024 82.2663 102.364 79.5462 102.445 76.2981C102.526 73.0556 105.191 70.4757 108.399 70.5346C111.637 70.5935 114.229 73.2447 114.192 76.4588Z" fill="#00330B" fill-opacity="0.5"/>
<path d="M98.7503 76.4802C98.7238 79.6699 96.1334 82.1969 92.9173 82.1699C89.7277 82.1435 87.2012 79.5532 87.2276 76.337C87.2541 73.1474 89.8444 70.6209 93.0605 70.6473C96.2497 70.6732 98.7767 73.2636 98.7503 76.4802Z" fill="#00330B" fill-opacity="0.5"/>
<path d="M144.499 122.262C144.461 125.444 141.855 127.958 138.634 127.919C135.451 127.881 132.937 125.274 132.976 122.053C133.015 118.871 135.621 116.358 138.842 116.396C142.024 116.434 144.538 119.041 144.499 122.262Z" fill="#00330B" fill-opacity="0.5"/>
<path d="M123.656 82.0637C120.573 82.0707 118.023 79.5417 117.992 76.4468C117.962 73.3275 120.582 70.7122 123.699 70.7527C126.797 70.7926 129.32 73.348 129.303 76.4294C129.287 79.5232 126.747 82.0572 123.656 82.0637Z" fill="#00330B" fill-opacity="0.5"/>
<path d="M144.393 91.5184C144.377 94.6118 141.838 97.1462 138.747 97.1537C135.621 97.1612 133.019 94.5269 133.082 91.4181C133.145 88.3128 135.712 85.8037 138.788 85.8427C141.886 85.8821 144.409 88.4375 144.393 91.5184Z" fill="#00330B" fill-opacity="0.5"/>
<path d="M83.5539 137.231C83.5674 140.313 81.0424 142.867 77.9451 142.903C74.8278 142.94 72.2089 140.323 72.2429 137.205C72.2768 134.108 74.8282 131.582 77.9111 131.592C81.0029 131.602 83.541 134.138 83.5539 137.231Z" fill="#00330B" fill-opacity="0.5"/>
<path d="M62.5306 101.373C65.5112 101.344 68.0401 103.865 68.0237 106.85C68.0077 109.795 65.5556 112.254 62.6069 112.283C59.6263 112.312 57.0973 109.791 57.1138 106.807C57.1303 103.861 59.5819 101.402 62.5306 101.373Z" fill="#00330B" fill-opacity="0.5"/>
<path d="M113.773 152.546C113.797 155.527 111.271 158.054 108.289 158.032C105.343 158.01 102.886 155.555 102.863 152.608C102.84 149.627 105.366 147.1 108.347 147.122C111.294 147.144 113.75 149.6 113.773 152.546Z" fill="#00330B" fill-opacity="0.5"/>
<path d="M83.3198 76.4309C83.3019 79.3975 80.8317 81.8476 77.8761 81.8301C74.9095 81.8122 72.4594 79.3421 72.4768 76.3864C72.4948 73.4198 74.9649 70.9697 77.9205 70.9872C80.8876 71.0046 83.3378 73.4752 83.3198 76.4309Z" fill="#00330B" fill-opacity="0.5"/>
<path d="M144.154 137.422C144.017 140.423 141.486 142.797 138.563 142.664C135.562 142.528 133.188 139.996 133.321 137.074C133.458 134.073 135.989 131.699 138.912 131.831C141.914 131.968 144.287 134.5 144.154 137.422Z" fill="#00330B" fill-opacity="0.5"/>
<path d="M67.9044 122.133C67.9168 125.149 65.5505 127.511 62.5345 127.494C59.5694 127.477 57.2455 125.149 57.2336 122.183C57.2211 119.167 59.5869 116.806 62.6034 116.823C65.5685 116.839 67.8924 119.167 67.9044 122.133Z" fill="#00330B" fill-opacity="0.5"/>
<path d="M93.0211 157.913C90.0046 157.929 87.6398 155.566 87.6533 152.55C87.6662 149.584 89.9911 147.257 92.9562 147.242C95.9727 147.226 98.3376 149.589 98.3241 152.605C98.3106 155.57 95.9862 157.897 93.0211 157.913Z" fill="#00330B" fill-opacity="0.5"/>
<path d="M67.8251 91.5478C67.7981 94.4246 65.3969 96.7815 62.5196 96.7545C59.6428 96.7276 57.286 94.3263 57.3129 91.449C57.3399 88.5722 59.7411 86.2154 62.6184 86.2424C65.4957 86.2693 67.852 88.671 67.8251 91.5478Z" fill="#00330B" fill-opacity="0.5"/>
<path d="M123.591 147.321C126.468 147.29 128.873 149.644 128.904 152.52C128.935 155.398 126.581 157.802 123.705 157.833C120.827 157.864 118.423 155.511 118.392 152.634C118.361 149.757 120.715 147.352 123.591 147.321Z" fill="#00330B" fill-opacity="0.5"/>
<path d="M143.947 76.4184C143.94 79.2368 141.579 81.6021 138.758 81.6176C135.9 81.633 133.475 79.1854 133.529 76.339C133.583 73.5052 135.968 71.1693 138.777 71.1998C141.605 71.2302 143.955 73.602 143.947 76.4184Z" fill="#00330B" fill-opacity="0.5"/>
<path d="M154.073 101.744C156.925 101.746 159.154 103.981 159.152 106.834C159.15 109.685 156.915 111.915 154.062 111.913C151.211 111.91 148.981 109.676 148.983 106.823C148.986 103.971 151.22 101.741 154.073 101.744Z" fill="#00330B" fill-opacity="0.5"/>
<path d="M113.403 61.0793C113.402 63.9317 111.17 66.1637 108.317 66.1632C105.465 66.1627 103.233 63.9307 103.233 61.0778C103.234 58.2255 105.466 55.9939 108.319 55.9939C111.171 55.9944 113.403 58.227 113.403 61.0793Z" fill="#00330B" fill-opacity="0.5"/>
<path d="M159.108 122.205C159.089 125.017 156.796 127.241 153.96 127.198C151.203 127.155 149.009 124.892 149.027 122.11C149.046 119.298 151.339 117.074 154.175 117.118C156.932 117.16 159.126 119.424 159.108 122.205Z" fill="#00330B" fill-opacity="0.5"/>
<path d="M67.5935 137.293C67.5716 140.053 65.2896 142.294 62.524 142.272C59.764 142.25 57.5225 139.968 57.5449 137.202C57.5669 134.442 59.8489 132.201 62.6144 132.223C65.3744 132.246 67.6155 134.527 67.5935 137.293Z" fill="#00330B" fill-opacity="0.5"/>
<path d="M92.9642 66.1033C90.2027 66.0914 87.9527 63.8189 87.9646 61.0543C87.9766 58.2928 90.2491 56.0428 93.0136 56.0548C95.7751 56.0667 98.0252 58.3392 98.0132 61.1037C98.0007 63.8653 95.7287 66.1153 92.9642 66.1033Z" fill="#00330B" fill-opacity="0.5"/>
<path d="M77.9026 147.553C80.6666 147.555 82.9251 149.816 82.9231 152.581C82.9211 155.345 80.6596 157.603 77.8951 157.601C75.1311 157.599 72.8726 155.338 72.8746 152.573C72.8761 149.809 75.138 147.551 77.9026 147.553Z" fill="#00330B" fill-opacity="0.5"/>
<path d="M123.596 56.1336C126.282 56.0942 128.553 58.3183 128.593 61.0264C128.632 63.7121 126.408 65.9836 123.7 66.0235C121.014 66.0629 118.743 63.8388 118.703 61.1307C118.663 58.445 120.888 56.1736 123.596 56.1336Z" fill="#00330B" fill-opacity="0.5"/>
<path d="M159.013 91.506C159.007 94.2051 156.756 96.4491 154.06 96.4436C151.361 96.4377 149.117 94.1871 149.122 91.491C149.128 88.7918 151.379 86.5478 154.075 86.5533C156.774 86.5593 159.018 88.8103 159.013 91.506Z" fill="#00330B" fill-opacity="0.5"/>
<path d="M138.708 147.774C141.378 147.762 143.517 149.863 143.541 152.518C143.565 155.239 141.425 157.393 138.707 157.38C136.047 157.368 133.934 155.242 133.935 152.577C133.935 149.912 136.048 147.786 138.708 147.774Z" fill="#00330B" fill-opacity="0.5"/>
<path d="M62.6394 71.6055C65.2931 71.6334 67.3884 73.7776 67.3719 76.4488C67.3555 79.153 65.1683 81.2648 62.4387 81.2109C59.796 81.159 57.7256 78.9868 57.7655 76.3081C57.8054 73.6604 59.9647 71.577 62.6394 71.6055Z" fill="#00330B" fill-opacity="0.5"/>
<path d="M82.6402 61.0733C82.6442 63.6318 80.4999 65.7945 77.934 65.8204C75.3356 65.8469 73.117 63.6193 73.157 61.0244C73.1969 58.4555 75.3691 56.3193 77.923 56.3372C80.4874 56.3552 82.6362 58.5129 82.6402 61.0733Z" fill="#00330B" fill-opacity="0.5"/>
<path d="M154.013 132.506C156.561 132.467 158.747 134.589 158.809 137.163C158.871 139.75 156.665 141.993 154.062 141.989C151.502 141.985 149.344 139.836 149.326 137.272C149.308 134.718 151.444 132.546 154.013 132.506Z" fill="#00330B" fill-opacity="0.5"/>
<path d="M51.8188 106.844C51.8123 109.431 49.7664 111.437 47.1636 111.407C44.6326 111.379 42.6535 109.359 42.6595 106.812C42.666 104.224 44.7119 102.219 47.3148 102.249C49.8462 102.278 51.8253 104.297 51.8188 106.844Z" fill="#00330B" fill-opacity="0.5"/>
<path d="M112.898 167.978C112.87 170.556 110.798 172.538 108.187 172.485C105.667 172.434 103.711 170.39 103.739 167.835C103.767 165.257 105.838 163.276 108.449 163.328C110.97 163.379 112.926 165.424 112.898 167.978Z" fill="#00330B" fill-opacity="0.5"/>
<path d="M158.609 76.4124C158.607 78.9105 156.533 80.9684 154.034 80.9504C151.536 80.9324 149.492 78.8441 149.525 76.345C149.559 73.8954 151.591 71.8804 154.042 71.8669C156.541 71.853 158.611 73.9139 158.609 76.4124Z" fill="#00330B" fill-opacity="0.5"/>
<path d="M97.5306 167.899C97.5346 170.398 95.4652 172.461 92.9667 172.449C90.4681 172.437 88.4192 170.354 88.4471 167.855C88.4746 165.404 90.5011 163.385 92.9517 163.365C95.4503 163.345 97.5261 165.401 97.5306 167.899Z" fill="#00330B" fill-opacity="0.5"/>
<path d="M47.2788 126.7C44.7803 126.721 42.7029 124.666 42.6975 122.168C42.692 119.669 44.7608 117.605 47.2594 117.616C49.71 117.627 51.7445 119.64 51.7809 122.089C51.8184 124.587 49.7764 126.678 47.2788 126.7Z" fill="#00330B" fill-opacity="0.5"/>
<path d="M143.257 61.0838C143.253 63.53 141.211 65.5814 138.762 65.5979C136.276 65.6143 134.175 63.495 134.219 61.0139C134.262 58.5628 136.334 56.5368 138.773 56.5598C141.222 56.5832 143.26 58.6397 143.257 61.0838Z" fill="#00330B" fill-opacity="0.5"/>
<path d="M67.0566 152.599C67.0406 155.044 64.9483 157.103 62.5176 157.065C60.064 157.026 58.0205 154.922 58.0814 152.496C58.1418 150.081 60.1598 148.096 62.5605 148.09C65.0021 148.083 67.0725 150.16 67.0566 152.599Z" fill="#00330B" fill-opacity="0.5"/>
<path d="M128.087 167.878C128.106 170.308 126.146 172.307 123.706 172.346C121.235 172.386 119.187 170.349 119.208 167.875C119.23 165.437 121.215 163.467 123.649 163.468C126.084 163.469 128.068 165.44 128.087 167.878Z" fill="#00330B" fill-opacity="0.5"/>
<path d="M47.2953 87.0593C49.736 87.0967 51.6966 89.0943 51.6786 91.5244C51.6607 94.007 49.5883 96.0145 47.1242 95.9362C44.6785 95.8588 42.7433 93.8339 42.8002 91.4132C42.8581 88.9705 44.8697 87.0219 47.2953 87.0593Z" fill="#00330B" fill-opacity="0.5"/>
<path d="M47.214 132.962C49.5269 132.946 51.4905 134.872 51.5254 137.192C51.5608 139.549 49.5643 141.556 47.205 141.534C44.8841 141.512 42.9504 139.561 42.9534 137.243C42.9564 134.925 44.8941 132.978 47.214 132.962Z" fill="#00330B" fill-opacity="0.5"/>
<path d="M77.8816 172.193C75.5632 172.182 73.6211 170.238 73.6126 167.92C73.6042 165.558 75.6191 163.572 77.975 163.621C80.2973 163.669 82.2141 165.642 82.1841 167.954C82.1547 170.274 80.1965 172.203 77.8816 172.193Z" fill="#00330B" fill-opacity="0.5"/>
<path d="M108.366 41.7337C110.687 41.7686 112.63 43.7702 112.574 46.0661C112.516 48.3905 110.499 50.3216 108.211 50.2438C105.924 50.166 104.051 48.2358 104.063 45.9718C104.076 43.6559 106.063 41.6988 108.366 41.7337Z" fill="#00330B" fill-opacity="0.5"/>
<path d="M164.902 106.776C164.941 104.454 166.944 102.513 169.24 102.573C171.565 102.634 173.494 104.654 173.412 106.941C173.33 109.229 171.398 111.101 169.135 111.084C166.818 111.067 164.864 109.078 164.902 106.776Z" fill="#00330B" fill-opacity="0.5"/>
<path d="M173.365 122.182C173.348 124.48 171.459 126.361 169.164 126.365C166.824 126.369 164.892 124.401 164.95 122.073C165.008 119.769 166.926 117.913 169.212 117.949C171.513 117.987 173.382 119.892 173.365 122.182Z" fill="#00330B" fill-opacity="0.5"/>
<path d="M154.044 156.785C151.746 156.768 149.864 154.879 149.86 152.584C149.855 150.244 151.823 148.312 154.151 148.37C156.455 148.428 158.312 150.346 158.275 152.631C158.238 154.932 156.334 156.801 154.044 156.785Z" fill="#00330B" fill-opacity="0.5"/>
<path d="M62.5596 56.8711C64.8515 56.8647 66.7492 58.7404 66.7762 61.0394C66.8036 63.3738 64.851 65.3214 62.5181 65.286C60.2172 65.2515 58.3469 63.3488 58.3609 61.0578C58.3758 58.7604 60.2636 56.8776 62.5596 56.8711Z" fill="#00330B" fill-opacity="0.5"/>
<path d="M92.9393 49.899C90.6034 49.874 88.7995 48.0132 88.8389 45.6699C88.8783 43.337 90.7531 41.545 93.098 41.5994C95.3834 41.6528 97.1484 43.4737 97.139 45.7687C97.1285 48.1075 95.2821 49.9239 92.9393 49.899Z" fill="#00330B" fill-opacity="0.5"/>
<path d="M127.734 45.9423C127.753 48.2288 125.968 50.0552 123.694 50.0746C121.408 50.0941 119.581 48.3092 119.562 46.0352C119.542 43.7487 121.327 41.9223 123.601 41.9029C125.888 41.8829 127.714 43.6684 127.734 45.9423Z" fill="#00330B" fill-opacity="0.5"/>
<path d="M51.3253 76.4448C51.3098 78.7203 49.4879 80.5098 47.2025 80.4943C44.927 80.4788 43.1375 78.6569 43.153 76.3715C43.1685 74.096 44.9903 72.3065 47.2758 72.322C49.5513 72.338 51.3407 74.1599 51.3253 76.4448Z" fill="#00330B" fill-opacity="0.5"/>
<path d="M169.368 95.5843C167.091 95.5719 165.299 93.7535 165.311 91.4685C165.324 89.192 167.142 87.3996 169.427 87.4121C171.703 87.4245 173.496 89.2429 173.483 91.5279C173.47 93.8049 171.652 95.5968 169.368 95.5843Z" fill="#00330B" fill-opacity="0.5"/>
<path d="M138.746 163.821C141.026 163.824 142.827 165.632 142.824 167.915C142.82 170.195 141.012 171.996 138.73 171.993C136.449 171.989 134.648 170.182 134.652 167.899C134.655 165.618 136.463 163.817 138.746 163.821Z" fill="#00330B" fill-opacity="0.5"/>
<path d="M158.076 61.1267C158.04 63.3219 156.125 65.1647 153.96 65.0864C151.793 65.008 150.025 63.1702 150.059 61.0314C150.095 58.8363 152.01 56.9934 154.175 57.0718C156.342 57.1501 158.11 58.9875 158.076 61.1267Z" fill="#00330B" fill-opacity="0.5"/>
<path d="M173.102 137.412C173 139.612 171.171 141.294 168.993 141.193C166.794 141.091 165.112 139.262 165.212 137.084C165.315 134.884 167.143 133.202 169.322 133.303C171.521 133.405 173.203 135.234 173.102 137.412Z" fill="#00330B" fill-opacity="0.5"/>
<path d="M81.8493 45.7283C81.8627 47.9124 80.1072 49.6864 77.9196 49.6999C75.7354 49.7134 73.9614 47.9578 73.948 45.7702C73.9345 43.586 75.69 41.812 77.8777 41.7986C80.0613 41.7851 81.8358 43.5406 81.8493 45.7283Z" fill="#00330B" fill-opacity="0.5"/>
<path d="M138.738 42.1519C140.888 42.1524 142.603 43.8939 142.575 46.0492C142.547 48.1455 140.84 49.8257 138.737 49.8257C136.587 49.8257 134.873 48.0841 134.901 45.9284C134.928 43.832 136.636 42.1519 138.738 42.1519Z" fill="#00330B" fill-opacity="0.5"/>
<path d="M173.234 76.4479C173.215 78.5931 171.455 80.2917 169.298 80.2453C167.206 80.1999 165.542 78.4743 165.56 76.369C165.579 74.2243 167.34 72.5251 169.496 72.5715C171.588 72.617 173.252 74.3425 173.234 76.4479Z" fill="#00330B" fill-opacity="0.5"/>
<path d="M51.0763 152.58C51.0748 154.73 49.3318 156.443 47.1765 156.414C45.0807 156.385 43.4015 154.676 43.403 152.574C43.4045 150.424 45.1476 148.711 47.3028 148.74C49.3982 148.769 51.0778 150.478 51.0763 152.58Z" fill="#00330B" fill-opacity="0.5"/>
<path d="M62.5381 171.744C60.3924 171.729 58.6892 169.972 58.7321 167.817C58.7735 165.724 60.4951 164.057 62.5999 164.07C64.7457 164.085 66.4483 165.842 66.4059 167.998C66.3645 170.09 64.6424 171.758 62.5381 171.744Z" fill="#00330B" fill-opacity="0.5"/>
<path d="M32.1134 103.013C34.1903 102.991 35.9428 104.711 35.9648 106.792C35.9867 108.868 34.2666 110.622 32.1858 110.643C30.1089 110.665 28.3564 108.945 28.3344 106.864C28.3125 104.788 30.0321 103.035 32.1134 103.013Z" fill="#00330B" fill-opacity="0.5"/>
<path d="M108.341 186.812C106.265 186.826 104.517 185.099 104.503 183.02C104.49 180.943 106.217 179.195 108.296 179.182C110.372 179.168 112.12 180.896 112.134 182.974C112.147 185.05 110.42 186.798 108.341 186.812Z" fill="#00330B" fill-opacity="0.5"/>
<path d="M35.9334 122.144C35.9433 124.204 34.1579 125.974 32.1035 125.941C30.079 125.909 28.3754 124.191 28.3659 122.171C28.3564 120.111 30.1414 118.341 32.1958 118.374C34.2198 118.406 35.9239 120.124 35.9334 122.144Z" fill="#00330B" fill-opacity="0.5"/>
<path d="M93.034 186.781C90.9791 186.813 89.1947 185.042 89.2046 182.982C89.2146 180.962 90.9187 179.244 92.9432 179.213C94.9981 179.181 96.7826 180.951 96.7721 183.011C96.7627 185.031 95.058 186.749 93.034 186.781Z" fill="#00330B" fill-opacity="0.5"/>
<path d="M154.17 164.238C156.247 164.288 157.813 165.973 157.733 168.07C157.655 170.096 156.011 171.626 153.965 171.577C151.888 171.526 150.322 169.842 150.402 167.745C150.48 165.718 152.124 164.188 154.17 164.238Z" fill="#00330B" fill-opacity="0.5"/>
<path d="M50.9086 61.0998C50.8982 63.1841 49.2499 64.788 47.1586 64.748C45.1286 64.7096 43.5597 63.0958 43.5702 61.0579C43.5807 58.9735 45.2294 57.3697 47.3202 57.4096C49.3502 57.448 50.9191 59.0618 50.9086 61.0998Z" fill="#00330B" fill-opacity="0.5"/>
<path d="M32.1798 87.8293C34.2631 87.8447 35.863 89.4975 35.8186 91.5888C35.7751 93.6183 34.1578 95.1827 32.1184 95.1677C30.035 95.1522 28.4352 93.499 28.4796 91.4082C28.523 89.3787 30.1403 87.8143 32.1798 87.8293Z" fill="#00330B" fill-opacity="0.5"/>
<path d="M123.439 179.328C125.523 179.343 127.122 180.996 127.078 183.087C127.035 185.117 125.417 186.681 123.378 186.666C121.294 186.651 119.695 184.997 119.739 182.907C119.782 180.877 121.399 179.313 123.439 179.328Z" fill="#00330B" fill-opacity="0.5"/>
<path d="M169.127 148.949C171.178 148.936 172.773 150.505 172.785 152.547C172.798 154.597 171.229 156.193 169.187 156.205C167.137 156.218 165.542 154.649 165.529 152.607C165.517 150.557 167.086 148.962 169.127 148.949Z" fill="#00330B" fill-opacity="0.5"/>
<path d="M62.5455 49.3496C60.518 49.3386 58.9297 47.7034 58.9682 45.6659C59.0056 43.6933 60.6079 42.1379 62.5919 42.1484C64.6194 42.1593 66.2078 43.7946 66.1689 45.8321C66.132 47.8052 64.5296 49.36 62.5455 49.3496Z" fill="#00330B" fill-opacity="0.5"/>
<path d="M77.9285 186.575C75.9819 186.593 74.3382 184.976 74.3207 183.027C74.3027 181.08 75.919 179.436 77.8687 179.419C79.8153 179.401 81.459 181.017 81.4765 182.967C81.4945 184.914 79.8782 186.557 77.9285 186.575Z" fill="#00330B" fill-opacity="0.5"/>
<path d="M32.1384 133.67C34.0865 133.663 35.7213 135.288 35.7272 137.237C35.7337 139.185 34.109 140.82 32.1603 140.826C30.2122 140.832 28.5774 139.207 28.5714 137.259C28.5649 135.311 30.1897 133.676 32.1384 133.67Z" fill="#00330B" fill-opacity="0.5"/>
<path d="M108.313 34.1517C106.392 34.1482 104.802 32.5399 104.826 30.6237C104.849 28.6975 106.47 27.1227 108.384 27.1661C110.267 27.209 111.795 28.7549 111.811 30.6342C111.828 32.5509 110.232 34.1552 108.313 34.1517Z" fill="#00330B" fill-opacity="0.5"/>
<path d="M184.545 103.335C186.471 103.374 188.038 105.008 187.98 106.916C187.92 108.847 186.276 110.396 184.369 110.318C182.48 110.241 180.976 108.673 180.995 106.8C181.014 104.874 182.63 103.297 184.545 103.335Z" fill="#00330B" fill-opacity="0.5"/>
<path d="M96.4123 30.6347C96.4243 32.5589 94.9602 34.0569 93.0431 34.0824C91.071 34.1088 89.548 32.5943 89.5655 30.6233C89.5824 28.7046 91.0724 27.2325 92.9946 27.2355C94.9153 27.2385 96.4004 28.7155 96.4123 30.6347Z" fill="#00330B" fill-opacity="0.5"/>
<path d="M154.059 42.565C155.982 42.561 157.473 44.0321 157.491 45.9508C157.51 47.9219 155.988 49.4374 154.016 49.4125C152.098 49.388 150.634 47.891 150.644 45.9673C150.655 44.0471 152.138 42.569 154.059 42.565Z" fill="#00330B" fill-opacity="0.5"/>
<path d="M32.1309 72.9847C34.0545 72.9757 35.5496 74.4423 35.5725 76.36C35.596 78.3316 34.079 79.8521 32.1074 79.8316C30.1887 79.8117 28.7196 78.3197 28.7256 76.3965C28.7316 74.4763 30.2112 72.9937 32.1309 72.9847Z" fill="#00330B" fill-opacity="0.5"/>
<path d="M184.469 118.734C186.393 118.725 187.888 120.192 187.911 122.109C187.934 124.081 186.417 125.601 184.446 125.581C182.527 125.561 181.058 124.069 181.064 122.146C181.069 120.225 182.549 118.743 184.469 118.734Z" fill="#00330B" fill-opacity="0.5"/>
<path d="M142.162 183.042C142.14 184.96 140.647 186.428 138.723 186.421C136.757 186.413 135.263 184.867 135.315 182.892C135.364 180.981 136.886 179.538 138.813 179.573C140.727 179.609 142.183 181.116 142.162 183.042Z" fill="#00330B" fill-opacity="0.5"/>
<path d="M169.42 57.6551C171.339 57.6661 172.817 59.1502 172.821 61.0713C172.825 63.0394 171.289 64.5424 169.315 64.5025C167.402 64.4641 165.949 62.9526 165.974 61.0269C165.998 59.1092 167.495 57.6446 169.42 57.6551Z" fill="#00330B" fill-opacity="0.5"/>
<path d="M127.031 30.6297C127.043 32.5489 125.563 34.042 123.647 34.0415C121.732 34.041 120.252 32.5474 120.266 30.6282C120.279 28.7629 121.728 27.3008 123.589 27.2759C125.513 27.2509 127.018 28.7175 127.031 30.6297Z" fill="#00330B" fill-opacity="0.5"/>
<path d="M184.443 88.3552C186.365 88.3362 187.863 89.8093 187.869 91.724C187.875 93.6402 186.387 95.1273 184.471 95.1203C182.603 95.1133 181.134 93.6697 181.104 91.8113C181.073 89.8867 182.534 88.3742 184.443 88.3552Z" fill="#00330B" fill-opacity="0.5"/>
<path d="M50.5948 167.907C50.5948 169.747 49.1083 171.248 47.2694 171.262C45.3802 171.278 43.8542 169.738 43.8841 167.847C43.913 166.012 45.4276 164.537 47.2689 164.552C49.1078 164.566 50.5948 166.067 50.5948 167.907Z" fill="#00330B" fill-opacity="0.5"/>
<path d="M184.458 140.535C182.683 140.515 181.179 138.984 181.2 137.218C181.22 135.444 182.751 133.94 184.517 133.96C186.291 133.981 187.795 135.512 187.775 137.277C187.754 139.052 186.223 140.556 184.458 140.535Z" fill="#00330B" fill-opacity="0.5"/>
<path d="M81.1861 30.6417C81.1986 32.4087 79.6885 33.9342 77.9161 33.9466C76.1491 33.9591 74.6236 32.4496 74.6112 30.6766C74.5987 28.9096 76.1082 27.3842 77.8812 27.3717C79.6482 27.3592 81.1737 28.8687 81.1861 30.6417Z" fill="#00330B" fill-opacity="0.5"/>
<path d="M32.1369 149.362C33.9054 149.355 35.3265 150.738 35.3649 152.505C35.4049 154.32 33.9772 155.785 32.1618 155.793C30.3469 155.8 28.9073 154.345 28.9337 152.53C28.9592 150.762 30.3674 149.369 32.1369 149.362Z" fill="#00330B" fill-opacity="0.5"/>
<path d="M65.7847 183.016C65.7732 184.832 64.3051 186.256 62.4897 186.213C60.7242 186.17 59.3424 184.745 59.3534 182.977C59.3649 181.162 60.8335 179.738 62.6484 179.781C64.4139 179.824 65.7956 181.249 65.7847 183.016Z" fill="#00330B" fill-opacity="0.5"/>
<path d="M169.175 164.808C170.872 164.818 172.285 166.26 172.257 167.954C172.229 169.651 170.771 171.052 169.081 171.006C167.428 170.961 166.066 169.57 166.059 167.919C166.051 166.223 167.478 164.798 169.175 164.808Z" fill="#00330B" fill-opacity="0.5"/>
<path d="M50.3388 45.7013C50.3672 47.395 48.955 48.8376 47.2579 48.8486C45.5617 48.8596 44.1336 47.4344 44.1406 45.7378C44.1476 44.0875 45.5098 42.6953 47.1621 42.6504C48.8522 42.604 50.3104 44.0042 50.3388 45.7013Z" fill="#00330B" fill-opacity="0.5"/>
<path d="M141.837 30.6692C141.831 32.3663 140.392 33.782 138.698 33.758C137 33.7341 135.597 32.2805 135.639 30.5893C135.679 28.9371 137.068 27.5713 138.718 27.5599C140.414 27.5484 141.843 28.9725 141.837 30.6692Z" fill="#00330B" fill-opacity="0.5"/>
<path d="M184.454 79.5078C182.757 79.4873 181.35 78.0367 181.388 76.3451C181.426 74.6479 182.892 73.2542 184.58 73.3096C186.233 73.3635 187.588 74.7632 187.586 76.4124C187.584 78.1091 186.148 79.5278 184.454 79.5078Z" fill="#00330B" fill-opacity="0.5"/>
<path d="M154.111 180.009C155.755 180.034 157.064 181.368 157.056 183.01C157.047 184.701 155.651 186.043 153.964 185.983C152.321 185.925 151.038 184.564 151.08 182.923C151.121 181.28 152.469 179.984 154.111 180.009Z" fill="#00330B" fill-opacity="0.5"/>
<path d="M32.1339 58.0907C33.7771 58.0818 35.1115 59.3892 35.137 61.0334C35.1634 62.722 33.7936 64.0923 32.1045 64.0664C30.4607 64.0409 29.1528 62.7071 29.1608 61.0638C29.1698 59.4206 30.4901 58.0997 32.1339 58.0907Z" fill="#00330B" fill-opacity="0.5"/>
<path d="M19.7415 106.851C19.731 108.52 18.444 109.774 16.7669 109.75C15.1022 109.726 13.8606 108.426 13.898 106.745C13.934 105.13 15.188 103.909 16.8133 103.906C18.4885 103.903 19.7519 105.174 19.7415 106.851Z" fill="#00330B" fill-opacity="0.5"/>
<path d="M16.6461 125.039C15.0558 124.956 13.8531 123.6 13.938 121.984C14.0213 120.394 15.3781 119.192 16.9929 119.276C18.5833 119.36 19.7859 120.716 19.701 122.331C19.6177 123.922 18.2614 125.124 16.6461 125.039Z" fill="#00330B" fill-opacity="0.5"/>
<path d="M111.24 198.344C111.232 200.014 109.949 201.27 108.271 201.248C106.605 201.227 105.362 199.929 105.397 198.249C105.43 196.634 106.681 195.41 108.306 195.405C109.981 195.399 111.248 196.668 111.24 198.344Z" fill="#00330B" fill-opacity="0.5"/>
<path d="M92.9971 195.442C94.6064 195.446 95.8774 196.724 95.8739 198.335C95.8699 199.945 94.592 201.216 92.9807 201.212C91.3709 201.208 90.0999 199.93 90.1039 198.319C90.1079 196.709 91.3858 195.438 92.9971 195.442Z" fill="#00330B" fill-opacity="0.5"/>
<path d="M19.6287 91.477C19.6432 92.997 18.3333 94.3129 16.8113 94.3069C15.2913 94.3009 13.9854 92.9735 14.0108 91.4595C14.0358 89.9825 15.2898 88.7225 16.7684 88.689C18.2784 88.6556 19.6142 89.9575 19.6287 91.477Z" fill="#00330B" fill-opacity="0.5"/>
<path d="M187.296 152.604C187.278 154.125 185.939 155.424 184.43 155.386C182.905 155.347 181.62 153.995 181.678 152.49C181.736 151.002 183.006 149.77 184.484 149.768C186.006 149.767 187.314 151.087 187.296 152.604Z" fill="#00330B" fill-opacity="0.5"/>
<path d="M123.46 201.135C121.951 201.17 120.614 199.868 120.599 198.348C120.584 196.829 121.894 195.512 123.416 195.518C124.895 195.523 126.163 196.757 126.217 198.245C126.272 199.751 124.985 201.1 123.46 201.135Z" fill="#00330B" fill-opacity="0.5"/>
<path d="M62.6204 33.4681C61.1109 33.502 59.775 32.2001 59.7606 30.6806C59.7461 29.1606 61.056 27.8447 62.578 27.8507C64.057 27.8567 65.3245 29.0913 65.3779 30.5783C65.4318 32.0843 64.1448 33.4332 62.6204 33.4681Z" fill="#00330B" fill-opacity="0.5"/>
<path d="M169.402 48.7129C167.867 48.7159 166.675 47.5287 166.673 45.9938C166.67 44.4588 167.858 43.2672 169.392 43.2647C170.927 43.2617 172.119 44.4493 172.121 45.9838C172.124 47.5182 170.937 48.7104 169.402 48.7129Z" fill="#00330B" fill-opacity="0.5"/>
<path d="M19.4141 137.301C19.3802 138.689 18.1436 139.876 16.7669 139.842C15.3786 139.808 14.1915 138.572 14.2254 137.195C14.2593 135.807 15.4959 134.619 16.8727 134.653C18.2609 134.688 19.4481 135.924 19.4141 137.301Z" fill="#00330B" fill-opacity="0.5"/>
<path d="M77.955 200.921C76.5797 200.957 75.3407 199.771 75.3042 198.383C75.2678 197.008 76.454 195.769 77.8422 195.732C79.2175 195.696 80.4565 196.882 80.493 198.27C80.5289 199.646 79.3427 200.884 77.955 200.921Z" fill="#00330B" fill-opacity="0.5"/>
<path d="M34.6689 167.919C34.6619 169.288 33.5366 170.416 32.1673 170.426C30.7521 170.437 29.5869 169.248 29.6298 167.836C29.6718 166.464 30.823 165.363 32.1913 165.387C33.562 165.412 34.6759 166.55 34.6689 167.919Z" fill="#00330B" fill-opacity="0.5"/>
<path d="M47.2234 180.477C48.5922 180.468 49.732 181.581 49.7589 182.952C49.7864 184.366 48.6101 185.543 47.1955 185.516C45.8242 185.491 44.7114 184.352 44.7199 182.983C44.7284 181.614 45.8541 180.487 47.2234 180.477Z" fill="#00330B" fill-opacity="0.5"/>
<path d="M187.007 61.1242C186.98 62.495 185.84 63.6078 184.471 63.5983C183.055 63.5888 181.907 62.3832 181.969 60.974C182.03 59.6018 183.197 58.5154 184.562 58.5593C185.934 58.6032 187.033 59.7564 187.007 61.1242Z" fill="#00330B" fill-opacity="0.5"/>
<path d="M156.587 30.6447C156.595 32.0135 155.483 33.1527 154.111 33.1787C152.697 33.2051 151.521 32.0285 151.548 30.6138C151.574 29.2425 152.714 28.1302 154.083 28.1392C155.452 28.1486 156.578 29.2754 156.587 30.6447Z" fill="#00330B" fill-opacity="0.5"/>
<path d="M138.773 195.928C140.114 195.947 141.17 197.048 141.136 198.391C141.102 199.73 139.987 200.774 138.644 200.724C137.353 200.676 136.338 199.617 136.34 198.321C136.343 196.98 137.43 195.91 138.773 195.928Z" fill="#00330B" fill-opacity="0.5"/>
<path d="M108.35 17.6874C107.087 17.7074 105.961 16.5971 105.961 15.3311C105.96 14.0651 107.085 12.9533 108.347 12.9723C109.57 12.9902 110.639 14.0436 110.676 15.2692C110.714 16.5292 109.62 17.6675 108.35 17.6874Z" fill="#00330B" fill-opacity="0.5"/>
<path d="M202.175 106.826C202.177 108.092 201.052 109.204 199.789 109.186C198.519 109.168 197.422 108.032 197.459 106.771C197.494 105.546 198.561 104.49 199.784 104.47C201.047 104.449 202.173 105.559 202.175 106.826Z" fill="#00330B" fill-opacity="0.5"/>
<path d="M16.7828 74.0506C18.0458 74.0271 19.1731 75.1334 19.1776 76.4014C19.1821 77.6664 18.0603 78.7812 16.7968 78.7662C15.5743 78.7517 14.5034 77.7013 14.4619 76.4753C14.4195 75.2163 15.5124 74.0745 16.7828 74.0506Z" fill="#00330B" fill-opacity="0.5"/>
<path d="M92.9607 13.0536C94.2202 13.0371 95.2481 14.0402 95.2646 15.3016C95.2811 16.5611 94.2781 17.5891 93.0166 17.6056C91.7566 17.622 90.7291 16.6195 90.7127 15.3575C90.6962 14.098 91.6992 13.0701 92.9607 13.0536Z" fill="#00330B" fill-opacity="0.5"/>
<path d="M199.788 124.434C198.526 124.417 197.524 123.388 197.541 122.129C197.558 120.867 198.586 119.865 199.846 119.882C201.107 119.899 202.11 120.927 202.093 122.187C202.076 123.448 201.047 124.451 199.788 124.434Z" fill="#00330B" fill-opacity="0.5"/>
<path d="M201.967 91.7874C201.94 92.9476 200.957 93.8992 199.797 93.8882C198.589 93.8768 197.605 92.8333 197.667 91.6292C197.727 90.4715 198.739 89.5443 199.896 89.5883C201.056 89.6317 201.994 90.6277 201.967 91.7874Z" fill="#00330B" fill-opacity="0.5"/>
<path d="M125.798 15.2867C125.822 16.4464 124.881 17.4399 123.721 17.4799C122.517 17.5218 121.488 16.5197 121.498 15.3131C121.508 14.1514 122.473 13.1874 123.635 13.1794C124.794 13.1719 125.774 14.1265 125.798 15.2867Z" fill="#00330B" fill-opacity="0.5"/>
<path d="M169.191 185.092C168.062 185.113 167.046 184.1 167.063 182.971C167.079 181.881 168.034 180.923 169.124 180.902C170.252 180.881 171.269 181.894 171.252 183.023C171.236 184.113 170.281 185.071 169.191 185.092Z" fill="#00330B" fill-opacity="0.5"/>
<path d="M34.2442 45.7782C34.2257 46.9139 33.1828 47.9005 32.061 47.8441C30.9697 47.7892 30.0366 46.8017 30.0545 45.7203C30.0735 44.5846 31.1159 43.598 32.2377 43.6544C33.329 43.7093 34.2622 44.6963 34.2442 45.7782Z" fill="#00330B" fill-opacity="0.5"/>
<path d="M186.473 167.851C186.5 168.971 185.68 169.852 184.572 169.893C183.406 169.936 182.499 169.064 182.501 167.902C182.504 166.786 183.346 165.934 184.462 165.921C185.581 165.908 186.446 166.738 186.473 167.851Z" fill="#00330B" fill-opacity="0.5"/>
<path d="M64.5551 198.386C64.5262 199.5 63.6604 200.328 62.5396 200.313C61.3794 200.297 60.5241 199.376 60.585 198.207C60.6429 197.103 61.5386 196.297 62.6579 196.34C63.7637 196.383 64.5841 197.268 64.5551 198.386Z" fill="#00330B" fill-opacity="0.5"/>
<path d="M18.8058 152.63C18.7804 153.743 17.9161 154.575 16.7968 154.563C15.6361 154.551 14.7773 153.633 14.8352 152.465C14.8896 151.361 15.7833 150.551 16.9021 150.591C18.0114 150.631 18.8318 151.509 18.8058 152.63Z" fill="#00330B" fill-opacity="0.5"/>
<path d="M77.8442 13.4049C78.949 13.376 79.8262 14.2313 79.8232 15.3346C79.8202 16.3915 79.0074 17.2263 77.953 17.2538C76.8477 17.2827 75.9714 16.4279 75.9739 15.3241C75.9769 14.2677 76.7898 13.4329 77.8442 13.4049Z" fill="#00330B" fill-opacity="0.5"/>
<path d="M201.741 137.302C201.712 138.401 200.807 139.232 199.703 139.171C198.654 139.113 197.865 138.251 197.893 137.193C197.921 136.094 198.828 135.264 199.931 135.324C200.98 135.382 201.769 136.244 201.741 137.302Z" fill="#00330B" fill-opacity="0.5"/>
<path d="M49.1641 30.6322C49.1781 31.6891 48.3772 32.5399 47.3263 32.5838C46.223 32.6302 45.3297 31.7874 45.3152 30.6861C45.3008 29.5813 46.1675 28.717 47.2724 28.7345C48.3273 28.7514 49.1501 29.5763 49.1641 30.6322Z" fill="#00330B" fill-opacity="0.5"/>
<path d="M201.501 76.365C201.523 77.2911 200.812 78.0546 199.891 78.0926C198.917 78.133 198.124 77.3665 198.133 76.3924C198.141 75.4657 198.877 74.7317 199.803 74.7247C200.731 74.7172 201.478 75.4393 201.501 76.365Z" fill="#00330B" fill-opacity="0.5"/>
<path d="M140.422 15.2896C140.442 16.2158 139.729 16.9773 138.808 17.0132C137.834 17.0512 137.043 16.2832 137.054 15.3091C137.065 14.3824 137.801 13.6504 138.728 13.6454C139.657 13.6404 140.401 14.3635 140.422 15.2896Z" fill="#00330B" fill-opacity="0.5"/>
<path d="M155.752 198.283C155.774 199.209 155.063 199.972 154.141 200.01C153.167 200.051 152.375 199.284 152.384 198.31C152.392 197.383 153.127 196.649 154.054 196.642C154.981 196.635 155.729 197.357 155.752 198.283Z" fill="#00330B" fill-opacity="0.5"/>
<path d="M16.8183 62.6996C15.9695 62.6986 15.216 61.9571 15.199 61.1068C15.1815 60.215 15.9929 59.4196 16.8812 59.458C17.7305 59.495 18.4595 60.2669 18.441 61.1102C18.4221 61.9601 17.6661 62.7006 16.8183 62.6996Z" fill="#00330B" fill-opacity="0.5"/>
<path d="M185.976 46.0197C185.96 46.883 185.294 47.5093 184.426 47.4778C183.568 47.4464 182.931 46.7622 183.004 45.8985C183.079 45.0077 183.596 44.5272 184.489 44.5047C185.356 44.4828 185.993 45.1499 185.976 46.0197Z" fill="#00330B" fill-opacity="0.5"/>
<path d="M169.434 32.1482C168.563 32.1672 167.912 31.534 167.909 30.6657C167.905 29.7969 168.552 29.1402 169.421 29.1756C170.314 29.2121 170.82 29.7026 170.881 30.5938C170.94 31.4591 170.296 32.1292 169.434 32.1482Z" fill="#00330B" fill-opacity="0.5"/>
<path d="M1.45924 108.317C0.595951 108.301 -0.0303048 107.635 0.00113284 106.767C0.0325705 105.909 0.716733 105.272 1.58052 105.344C2.47125 105.419 2.95178 105.936 2.97424 106.829C2.99619 107.697 2.32901 108.334 1.45924 108.317Z" fill="#00330B" fill-opacity="0.5"/>
<path d="M109.807 213.692C109.789 214.554 109.12 215.179 108.253 215.145C107.396 215.112 106.759 214.425 106.835 213.562C106.913 212.672 107.43 212.193 108.324 212.173C109.192 212.153 109.826 212.821 109.807 213.692Z" fill="#00330B" fill-opacity="0.5"/>
<path d="M2.92635 122.19C2.78563 123.048 2.31708 123.606 1.42834 123.56C0.552579 123.514 0.0351002 122.947 0.0874962 122.066C0.1359 121.252 0.666344 120.743 1.4937 120.752C2.38394 120.762 2.82754 121.327 2.92635 122.19Z" fill="#00330B" fill-opacity="0.5"/>
<path d="M33.594 182.969C33.4488 183.882 32.9822 184.442 32.0935 184.399C31.2172 184.358 30.6987 183.792 30.7466 182.911C30.7911 182.096 31.3205 181.589 32.1469 181.591C33.0426 181.593 33.4657 182.178 33.594 182.969Z" fill="#00330B" fill-opacity="0.5"/>
<path d="M93.0216 215.092C92.1588 214.994 91.584 214.549 91.5855 213.66C91.5874 212.779 92.1329 212.246 93.0141 212.252C93.8375 212.258 94.3589 212.775 94.3929 213.594C94.4298 214.483 93.8794 214.951 93.0216 215.092Z" fill="#00330B" fill-opacity="0.5"/>
<path d="M201.115 152.54C201.047 153.356 200.641 153.845 199.848 153.854C198.998 153.863 198.515 153.368 198.541 152.521C198.565 151.732 199.056 151.288 199.843 151.3C200.641 151.311 201.037 151.801 201.115 152.54Z" fill="#00330B" fill-opacity="0.5"/>
<path d="M2.78859 91.497C2.69577 92.3228 2.26813 92.7904 1.4772 92.7749C0.622391 92.7584 0.163805 92.236 0.215203 91.3976C0.263607 90.6102 0.777088 90.1835 1.56153 90.2205C2.35845 90.2584 2.7332 90.7684 2.78859 91.497Z" fill="#00330B" fill-opacity="0.5"/>
<path d="M63.867 15.2902C63.7991 16.11 63.3924 16.5976 62.5995 16.606C61.7492 16.615 61.2671 16.1185 61.293 15.2727C61.3175 14.4833 61.8091 14.0397 62.5965 14.0516C63.3939 14.0636 63.7891 14.5546 63.867 15.2902Z" fill="#00330B" fill-opacity="0.5"/>
<path d="M123.364 212.358C124.176 212.42 124.67 212.82 124.684 213.614C124.7 214.462 124.21 214.951 123.362 214.932C122.573 214.914 122.124 214.428 122.13 213.64C122.135 212.843 122.621 212.442 123.364 212.358Z" fill="#00330B" fill-opacity="0.5"/>
<path d="M155.111 15.2987C155.083 15.9334 154.769 16.3396 154.109 16.3611C153.459 16.382 153.058 16.0277 153.036 15.3705C153.014 14.7208 153.369 14.3206 154.026 14.2972C154.677 14.2747 155.042 14.6355 155.111 15.2987Z" fill="#00330B" fill-opacity="0.5"/>
<path d="M2.53461 137.279C2.46375 137.942 2.09897 138.303 1.44826 138.279C0.791066 138.255 0.436772 137.854 0.459227 137.205C0.482182 136.548 0.883873 136.194 1.53309 136.216C2.19228 136.238 2.50716 136.644 2.53461 137.279Z" fill="#00330B" fill-opacity="0.5"/>
<path d="M17.8682 167.901C17.7934 168.601 17.4286 168.962 16.7779 168.938C16.1207 168.914 15.7664 168.514 15.7888 167.864C15.8118 167.207 16.213 166.855 16.8627 166.874C17.5254 166.894 17.8273 167.312 17.8682 167.901Z" fill="#00330B" fill-opacity="0.5"/>
<path d="M199.823 60.0339C200.48 60.0903 200.857 60.4366 200.848 61.0923C200.84 61.748 200.455 62.1177 199.803 62.1107C199.148 62.1033 198.778 61.7185 198.784 61.0653C198.791 60.4071 199.183 60.0768 199.823 60.0339Z" fill="#00330B" fill-opacity="0.5"/>
<path d="M47.196 197.279C47.8731 197.325 48.2654 197.655 48.2713 198.313C48.2773 198.966 47.9076 199.35 47.2524 199.358C46.5992 199.365 46.2164 198.995 46.207 198.339C46.1975 197.682 46.5832 197.344 47.196 197.279Z" fill="#00330B" fill-opacity="0.5"/>
<path d="M77.8676 214.701C77.2044 214.63 76.8437 214.265 76.8671 213.614C76.8911 212.957 77.2918 212.602 77.941 212.625C78.5982 212.648 78.952 213.05 78.9305 213.699C78.9086 214.358 78.5019 214.673 77.8676 214.701Z" fill="#00330B" fill-opacity="0.5"/>
<path d="M2.42335 76.4533C2.31905 76.9798 2.02065 77.3446 1.47473 77.3206C0.879909 77.2942 0.519139 76.9059 0.58401 76.3061C0.640897 75.7792 1.01763 75.4444 1.56455 75.4963C2.09799 75.5457 2.38193 75.9119 2.42335 76.4533Z" fill="#00330B" fill-opacity="0.5"/>
<path d="M33.0835 30.6582C33.0087 31.1916 32.7222 31.5639 32.1793 31.5709C31.5795 31.5784 31.2082 31.2006 31.2392 30.6013C31.2666 30.0689 31.6314 29.7271 32.1783 29.7455C32.7227 29.7635 33.0077 30.1263 33.0835 30.6582Z" fill="#00330B" fill-opacity="0.5"/>
<path d="M184.472 182.063C185.007 182.127 185.382 182.411 185.398 182.952C185.417 183.552 185.044 183.927 184.445 183.908C183.908 183.892 183.566 183.528 183.573 182.984C183.58 182.439 183.941 182.149 184.472 182.063Z" fill="#00330B" fill-opacity="0.5"/>
<path d="M138.726 214.59C138.193 214.507 137.824 214.216 137.826 213.673C137.829 213.074 138.21 212.704 138.809 212.746C139.339 212.782 139.68 213.151 139.652 213.698C139.624 214.241 139.26 214.524 138.726 214.59Z" fill="#00330B" fill-opacity="0.5"/>
<path d="M169.888 198.379C169.819 198.85 169.538 199.093 169.076 199.045C168.603 198.996 168.384 198.676 168.442 198.215C168.494 197.807 168.767 197.586 169.181 197.605C169.66 197.626 169.877 197.915 169.888 198.379Z" fill="#00330B" fill-opacity="0.5"/>
<path d="M17.5513 45.7517C17.5079 46.2233 17.2579 46.4913 16.7848 46.4693C16.3093 46.4469 16.0688 46.1515 16.0997 45.6844C16.1266 45.2727 16.3816 45.0347 16.7963 45.0277C17.2729 45.0192 17.5134 45.2882 17.5513 45.7517Z" fill="#00330B" fill-opacity="0.5"/>
</svg>
