<?xml version="1.0" standalone="no"?>
<!DOCTYPE svg PUBLIC "-//W3C//DTD SVG 20010904//EN"
 "http://www.w3.org/TR/2001/REC-SVG-20010904/DTD/svg10.dtd">
<svg version="1.0" xmlns="http://www.w3.org/2000/svg"
 width="700.000000pt" height="700.000000pt" viewBox="0 0 700.000000 700.000000"
 preserveAspectRatio="xMidYMid meet">
<metadata>
Created by potrace 1.14, written by Peter Selinger 2001-2017
</metadata>
<g transform="translate(0.000000,700.000000) scale(0.100000,-0.100000)"
fill="#000000" stroke="none">
<path d="M3280 6994 c-19 -2 -84 -9 -145 -14 -639 -62 -1264 -315 -1795 -726
-149 -115 -481 -446 -595 -594 -410 -532 -653 -1132 -727 -1795 -17 -155 -17
-575 0 -730 75 -673 332 -1300 748 -1820 114 -143 339 -372 484 -494 537 -451
1163 -717 1885 -803 142 -17 586 -17 730 0 682 79 1268 318 1802 734 138 107
389 351 512 498 451 538 717 1162 803 1885 16 139 16 595 0 730 -77 629 -275
1158 -620 1649 -234 333 -577 668 -917 896 -460 308 -968 495 -1535 566 -117
15 -552 27 -630 18z m-793 -1912 c131 -29 260 -68 393 -119 63 -24 115 -45
117 -47 2 -1 -9 -31 -23 -65 -14 -35 -24 -64 -22 -66 2 -1 13 -8 25 -14 l23
-11 -21 -52 c-21 -54 -19 -78 6 -78 19 0 19 1 -5 -55 -24 -57 -25 -60 -2 -71
17 -8 9 -33 -96 -296 l-114 -286 -54 24 c-88 39 -252 94 -359 120 -107 26
-308 44 -290 26 6 -5 109 -56 230 -113 385 -182 530 -292 627 -481 67 -128 73
-177 72 -568 0 -394 -5 -424 -88 -595 -118 -241 -350 -406 -661 -470 -167 -35
-558 -35 -755 0 -105 18 -277 71 -374 115 l-63 28 -6 197 c-9 252 -9 607 -1
762 l7 121 99 -44 c140 -62 316 -119 459 -149 132 -27 340 -43 405 -30 39 7
37 8 -231 140 -313 154 -401 209 -506 315 -61 61 -86 97 -123 171 -80 163 -81
171 -81 604 l0 380 27 80 c100 295 350 476 744 540 134 22 517 14 641 -13z
m1703 -527 l0 -515 435 0 435 0 0 403 c0 221 3 453 7 515 l6 112 372 0 372 0
6 -112 c9 -148 9 -2637 0 -2891 l-6 -197 -372 0 -372 0 -6 197 c-4 108 -7 364
-7 570 l0 373 -435 0 -435 0 0 -570 0 -570 -374 0 -373 0 -7 92 c-3 50 -6 770
-6 1600 l0 1508 380 0 380 0 0 -515z"/>
</g>
</svg>
